<?xml version="1.0" encoding="utf-8"?>
<!-- Generator: Adobe Illustrator 17.0.0, SVG Export Plug-In . SVG Version: 6.00 Build 0)  -->
<!DOCTYPE svg PUBLIC "-//W3C//DTD SVG 1.1//EN" "http://www.w3.org/Graphics/SVG/1.1/DTD/svg11.dtd">
<svg version="1.1" id="Capa_1" xmlns="http://www.w3.org/2000/svg" xmlns:xlink="http://www.w3.org/1999/xlink" x="0px" y="0px"
	 width="1201.896px" height="602.292px" viewBox="0 0 1201.896 602.292" enable-background="new 0 0 1201.896 602.292"
	 xml:space="preserve">
<g>
	<path fill="#FFFFFF" d="M155.281,288.675h-26.284v-17.567c0-5.108-0.281-8.296-0.843-9.563c-0.562-1.266-1.801-1.9-3.714-1.9
		c-2.165,0-3.538,0.771-4.121,2.31c-0.584,1.54-0.874,4.87-0.874,9.989v46.948c0,4.911,0.29,8.116,0.874,9.614
		c0.582,1.498,1.893,2.248,3.933,2.248c1.956,0,3.235-0.75,3.84-2.252c0.603-1.502,0.905-5.028,0.905-10.578v-12.705h26.284v3.94
		c0,10.462-0.74,17.881-2.216,22.258c-1.478,4.377-4.745,8.212-9.802,11.505c-5.057,3.293-11.29,4.939-18.698,4.939
		c-7.7,0-14.047-1.395-19.041-4.183c-4.995-2.788-8.303-6.649-9.927-11.581c-1.623-4.932-2.435-12.351-2.435-22.257v-29.531
		c0-7.283,0.249-12.746,0.749-16.388c0.5-3.642,1.987-7.149,4.464-10.52c2.476-3.371,5.91-6.024,10.301-7.96
		c4.39-1.935,9.437-2.903,15.14-2.903c7.741,0,14.13,1.497,19.166,4.49c5.036,2.993,8.345,6.724,9.927,11.191
		c1.582,4.468,2.373,11.42,2.373,20.854V288.675z"/>
	<path fill="#FFFFFF" d="M221.708,262.891v82.846h-25.66l0.437-6.883c-1.748,2.794-3.902,4.889-6.462,6.285
		c-2.559,1.397-5.505,2.096-8.834,2.096c-3.788,0-6.93-0.667-9.427-1.998c-2.498-1.332-4.339-3.1-5.525-5.306
		c-1.187-2.206-1.926-4.505-2.217-6.898c-0.291-2.393-0.437-7.149-0.437-14.266v-55.876h25.222v56.375
		c0,6.452,0.198,10.281,0.593,11.487c0.395,1.208,1.467,1.811,3.216,1.811c1.873,0,2.986-0.625,3.34-1.873
		c0.353-1.249,0.53-5.265,0.53-12.049v-55.751H221.708z"/>
	<path fill="#FFFFFF" d="M256.732,244.661v101.076h-25.971V244.661H256.732z"/>
	<path fill="#FFFFFF" d="M292.381,251.84v13.048h6.805v13.111h-6.805v44.326c0,5.453,0.281,8.491,0.843,9.115
		s2.903,0.936,7.024,0.936v13.36h-10.177c-5.743,0-9.843-0.239-12.299-0.718c-2.456-0.478-4.62-1.582-6.493-3.309
		c-1.873-1.727-3.038-3.704-3.496-5.931c-0.459-2.226-0.687-7.46-0.687-15.701v-42.079h-5.432v-13.111h5.432V251.84H292.381z"/>
	<path fill="#FFFFFF" d="M362.491,262.891v82.846h-25.66l0.437-6.883c-1.748,2.794-3.902,4.889-6.462,6.285
		c-2.559,1.397-5.505,2.096-8.834,2.096c-3.788,0-6.93-0.667-9.427-1.998c-2.498-1.332-4.339-3.1-5.525-5.306
		c-1.187-2.206-1.926-4.505-2.217-6.898c-0.291-2.393-0.437-7.149-0.437-14.266v-55.876h25.222v56.375
		c0,6.452,0.198,10.281,0.593,11.487c0.395,1.208,1.467,1.811,3.216,1.811c1.873,0,2.986-0.625,3.34-1.873
		c0.353-1.249,0.53-5.265,0.53-12.049v-55.751H362.491z"/>
	<path fill="#FFFFFF" d="M396.766,262.891l-0.999,10.894c3.662-7.802,8.969-11.933,15.92-12.392v29.155
		c-4.62,0-8.013,0.624-10.176,1.873c-2.165,1.249-3.496,2.987-3.996,5.213c-0.499,2.227-0.749,7.357-0.749,15.39v32.714h-25.222
		v-82.846H396.766z"/>
	<path fill="#FFFFFF" d="M439.844,294.981h-23.661v-5.557c0-6.409,0.738-11.352,2.216-14.827c1.477-3.475,4.442-6.545,8.897-9.209
		c4.453-2.663,10.239-3.995,17.356-3.995c8.531,0,14.962,1.509,19.291,4.526c4.328,3.019,6.93,6.722,7.804,11.113
		c0.874,4.392,1.311,13.434,1.311,27.126v41.58h-24.536v-7.382c-1.54,2.961-3.527,5.181-5.962,6.661
		c-2.435,1.479-5.338,2.22-8.709,2.22c-4.413,0-8.459-1.239-12.143-3.714c-3.684-2.476-5.525-7.898-5.525-16.263v-6.806
		c0-6.201,0.977-10.426,2.935-12.673c1.956-2.248,6.805-4.87,14.546-7.866c8.282-3.246,12.715-5.432,13.298-6.555
		c0.582-1.124,0.874-3.412,0.874-6.868c0-4.328-0.323-7.148-0.968-8.459c-0.646-1.311-1.717-1.967-3.216-1.967
		c-1.707,0-2.769,0.552-3.184,1.654c-0.416,1.103-0.624,3.965-0.624,8.584V294.981z M447.835,306.343
		c-4.038,2.956-6.379,5.432-7.024,7.43c-0.646,1.997-0.968,4.87-0.968,8.616c0,4.287,0.281,7.054,0.843,8.303
		c0.562,1.248,1.675,1.873,3.34,1.873c1.582,0,2.612-0.489,3.09-1.467c0.478-0.978,0.719-3.548,0.719-7.711V306.343z"/>
	<path fill="#FFFFFF" d="M557.074,262.891l-7.206,59.936c-1.141,9.489-2.096,15.96-2.865,19.414c-0.77,3.456-2.051,6.306-3.84,8.553
		c-1.789,2.248-4.276,3.902-7.46,4.963c-3.184,1.062-8.271,1.592-15.262,1.592h-15.294v-13.236c3.918,0,6.44-0.197,7.567-0.593
		c1.125-0.395,1.689-1.28,1.689-2.654c0-0.665-0.521-3.559-1.563-8.678l-13.811-69.299h22.897l8.288,55.939l4.042-55.939H557.074z"
		/>
	<path fill="#FFFFFF" d="M584.872,244.661h43.827v20.227h-17.543v19.166h16.419v19.229h-16.419v22.225h19.29v20.228h-45.574V244.661
		z"/>
	<path fill="#FFFFFF" d="M694.628,244.661v101.076h-25.222v-6.009c-2.414,2.503-4.953,4.38-7.616,5.631
		c-2.665,1.25-5.454,1.877-8.365,1.877c-3.913,0-7.305-1.03-10.177-3.09c-2.872-2.06-4.714-4.442-5.526-7.149
		c-0.811-2.705-1.217-7.116-1.217-13.235v-38.77c0-6.368,0.406-10.884,1.217-13.548c0.812-2.663,2.674-5.004,5.589-7.024
		c2.912-2.018,6.389-3.027,10.426-3.027c3.121,0,5.982,0.563,8.584,1.69c2.6,1.126,4.963,2.816,7.086,5.068v-23.489H694.628z
		 M669.405,283.743c0-3.038-0.26-5.077-0.781-6.119c-0.521-1.04-1.55-1.561-3.09-1.561c-1.498,0-2.509,0.468-3.028,1.405
		c-0.521,0.936-0.781,3.027-0.781,6.274v40.58c0,3.371,0.25,5.587,0.749,6.649c0.499,1.061,1.456,1.592,2.872,1.592
		c1.623,0,2.704-0.593,3.245-1.779s0.812-4.089,0.812-8.709V283.743z"/>
	<path fill="#FFFFFF" d="M761.429,262.891v82.846h-25.66l0.438-6.883c-1.749,2.794-3.902,4.889-6.461,6.285
		c-2.561,1.397-5.506,2.096-8.834,2.096c-3.788,0-6.93-0.667-9.428-1.998c-2.496-1.332-4.339-3.1-5.524-5.306
		c-1.187-2.206-1.926-4.505-2.216-6.898c-0.293-2.393-0.438-7.149-0.438-14.266v-55.876h25.222v56.375
		c0,6.452,0.197,10.281,0.593,11.487c0.395,1.208,1.467,1.811,3.216,1.811c1.873,0,2.986-0.625,3.34-1.873
		c0.353-1.249,0.53-5.265,0.53-12.049v-55.751H761.429z"/>
	<path fill="#FFFFFF" d="M826.234,294.168h-23.787v-9.552c0-3.329-0.271-5.587-0.812-6.773c-0.541-1.187-1.539-1.779-2.997-1.779
		c-1.456,0-2.435,0.521-2.934,1.561c-0.499,1.041-0.749,3.371-0.749,6.992v39.083c0,2.955,0.375,5.172,1.124,6.649
		c0.749,1.477,1.852,2.216,3.308,2.216c1.706,0,2.861-0.77,3.466-2.31c0.603-1.54,0.905-4.453,0.905-8.741v-9.865h22.476
		c-0.042,6.618-0.282,11.582-0.718,14.89c-0.438,3.309-1.832,6.702-4.183,10.176c-2.351,3.476-5.422,6.098-9.209,7.866
		c-3.787,1.769-8.469,2.654-14.047,2.654c-7.116,0-12.757-1.217-16.918-3.652c-4.163-2.435-7.108-5.847-8.834-10.239
		c-1.728-4.39-2.591-10.622-2.591-18.698v-23.536c0-7.033,0.707-12.34,2.123-15.92c1.413-3.579,4.432-6.773,9.052-9.583
		c4.621-2.809,10.24-4.214,16.857-4.214c6.576,0,12.195,1.394,16.857,4.183c4.66,2.789,7.763,6.306,9.302,10.551
		C825.463,280.371,826.234,286.386,826.234,294.168z"/>
	<path fill="#FFFFFF" d="M856.264,294.981h-23.662v-5.557c0-6.409,0.738-11.352,2.216-14.827c1.476-3.475,4.443-6.545,8.897-9.209
		c4.453-2.663,10.238-3.995,17.356-3.995c8.531,0,14.962,1.509,19.292,4.526c4.328,3.019,6.93,6.722,7.803,11.113
		c0.874,4.392,1.311,13.434,1.311,27.126v41.58h-24.536v-7.382c-1.541,2.961-3.527,5.181-5.962,6.661
		c-2.435,1.479-5.337,2.22-8.708,2.22c-4.413,0-8.46-1.239-12.144-3.714c-3.683-2.476-5.524-7.898-5.524-16.263v-6.806
		c0-6.201,0.977-10.426,2.934-12.673c1.956-2.248,6.806-4.87,14.548-7.866c8.282-3.246,12.714-5.432,13.296-6.555
		s0.875-3.412,0.875-6.868c0-4.328-0.323-7.148-0.968-8.459c-0.645-1.311-1.717-1.967-3.216-1.967c-1.706,0-2.768,0.552-3.184,1.654
		c-0.416,1.103-0.623,3.965-0.623,8.584V294.981z M864.255,306.343c-4.039,2.956-6.379,5.432-7.024,7.43
		c-0.645,1.997-0.966,4.87-0.966,8.616c0,4.287,0.28,7.054,0.842,8.303c0.562,1.248,1.675,1.873,3.34,1.873
		c1.582,0,2.611-0.489,3.091-1.467c0.477-0.978,0.718-3.548,0.718-7.711V306.343z"/>
	<path fill="#FFFFFF" d="M953.905,294.168h-23.787v-9.552c0-3.329-0.271-5.587-0.812-6.773c-0.541-1.187-1.539-1.779-2.997-1.779
		c-1.456,0-2.435,0.521-2.934,1.561c-0.499,1.041-0.749,3.371-0.749,6.992v39.083c0,2.955,0.375,5.172,1.124,6.649
		c0.749,1.477,1.853,2.216,3.308,2.216c1.706,0,2.861-0.77,3.466-2.31c0.603-1.54,0.905-4.453,0.905-8.741v-9.865h22.476
		c-0.042,6.618-0.282,11.582-0.718,14.89c-0.438,3.309-1.832,6.702-4.183,10.176c-2.351,3.476-5.422,6.098-9.209,7.866
		c-3.787,1.769-8.469,2.654-14.047,2.654c-7.116,0-12.757-1.217-16.918-3.652c-4.163-2.435-7.108-5.847-8.834-10.239
		c-1.728-4.39-2.591-10.622-2.591-18.698v-23.536c0-7.033,0.707-12.34,2.123-15.92c1.413-3.579,4.432-6.773,9.052-9.583
		c4.621-2.809,10.24-4.214,16.857-4.214c6.576,0,12.195,1.394,16.857,4.183c4.66,2.789,7.763,6.306,9.302,10.551
		C953.134,280.371,953.905,286.386,953.905,294.168z"/>
	<path fill="#FFFFFF" d="M987.369,244.661v13.173h-25.971v-13.173H987.369z M987.369,262.891v82.846h-25.971v-82.846H987.369z"/>
	<path fill="#FFFFFF" d="M1053.484,291.984v20.29c0,7.451-0.375,12.913-1.124,16.388c-0.749,3.475-2.351,6.721-4.807,9.739
		c-2.457,3.019-5.609,5.244-9.459,6.68c-3.85,1.436-8.272,2.154-13.267,2.154c-5.578,0-10.301-0.615-14.172-1.841
		c-3.87-1.228-6.878-3.08-9.022-5.557c-2.144-2.476-3.674-5.473-4.588-8.99c-0.916-3.516-1.374-8.792-1.374-15.827v-21.227
		c0-7.7,0.833-13.714,2.498-18.043c1.664-4.328,4.66-7.803,8.99-10.426c4.328-2.622,9.864-3.933,16.606-3.933
		c5.66,0,10.52,0.843,14.578,2.528c4.058,1.686,7.19,3.881,9.396,6.586c2.205,2.706,3.714,5.495,4.525,8.366
		C1053.078,281.745,1053.484,286.115,1053.484,291.984z M1045.992,240.415l-20.54,16.919h-12.673l10.987-16.919H1045.992z
		 M1028.262,285.74c0-4.245-0.23-6.919-0.688-8.022c-0.458-1.103-1.435-1.654-2.934-1.654c-1.498,0-2.498,0.552-2.997,1.654
		c-0.499,1.103-0.749,3.777-0.749,8.022v37.397c0,3.913,0.25,6.462,0.749,7.648c0.499,1.186,1.478,1.779,2.934,1.779
		c1.498,0,2.487-0.541,2.967-1.624c0.477-1.082,0.718-3.412,0.718-6.992V285.74z"/>
	<path fill="#FFFFFF" d="M1087.448,262.891l-0.438,7.632c1.83-3.043,4.068-5.326,6.711-6.848c2.643-1.521,5.691-2.282,9.146-2.282
		c4.328,0,7.866,1.02,10.615,3.059c2.746,2.04,4.516,4.61,5.306,7.711c0.79,3.101,1.187,8.272,1.187,15.514v58.061h-25.222v-57.375
		c0-5.702-0.187-9.178-0.562-10.426c-0.375-1.249-1.417-1.873-3.123-1.873c-1.79,0-2.913,0.718-3.371,2.154
		c-0.458,1.435-0.686,5.275-0.686,11.519v56.001h-25.222v-82.846H1087.448z"/>
</g>
<g>
	<path fill="#FFFFFF" d="M98.6,177.515h8.044c12.849,0,18.335,6.529,18.335,14.73c0,12.954-7.992,21.73-23.244,21.73H90.87
		L98.6,177.515z M97.138,209.378h5.536c10.343,0,16.768-6.686,16.768-16.558c0-6.268-2.873-10.708-13.477-10.708h-3.03
		L97.138,209.378z"/>
	<path fill="#FFFFFF" d="M134.167,187.336h4.91l-5.641,26.639h-4.911L134.167,187.336z M140.696,181.381h-5.537l1.149-5.537h5.537
		L140.696,181.381z"/>
	<path fill="#FFFFFF" d="M147.38,191.41c0.209-1.097,0.522-2.507,0.731-4.074h4.597l-0.836,4.231h0.104
		c1.568-2.507,4.44-4.858,9.089-4.858c0.47,0,1.306,0.105,2.246,0.471l-1.097,4.335c-0.94-0.366-1.723-0.523-2.089-0.523
		c-6.059,0-9.037,6.581-9.716,9.872l-2.769,13.111h-4.91L147.38,191.41z"/>
	<path fill="#FFFFFF" d="M183.836,213.505c-2.559,0.626-5.223,1.096-7.887,1.096c-6.477,0-12.275-2.611-12.275-12.014
		c0-7.365,5.171-15.879,14.573-15.879c6.425,0,10.029,3.866,10.029,10.186c0,1.776-0.209,3.291-0.47,4.858h-18.752
		c-0.105,0.574-0.157,1.097-0.157,1.671c0,5.589,3.448,7.209,8.201,7.209c2.455,0,5.119-0.626,7.522-1.62L183.836,213.505z
		 M183.209,198.096c0.105-0.784,0.157-1.41,0.157-2.037c0-3.134-1.933-5.38-5.641-5.38c-4.022,0-7.105,3.5-8.149,7.417H183.209z"/>
	<path fill="#FFFFFF" d="M212.927,191.984c-1.724-0.94-3.396-1.306-4.753-1.306c-6.321,0-10.238,5.589-10.238,12.066
		c0,4.963,2.507,7.888,7.209,7.888c1.672,0,3.813-0.574,5.38-1.202l-0.888,4.545c-1.62,0.47-3.395,0.626-5.119,0.626
		c-7.051,0-11.804-3.76-11.804-11.125c0-9.037,5.275-16.768,14.521-16.768c2.82,0,4.91,0.366,6.895,1.045L212.927,191.984z"/>
	<path fill="#FFFFFF" d="M236.116,191.984c-1.724-0.94-3.396-1.306-4.753-1.306c-6.321,0-10.238,5.589-10.238,12.066
		c0,4.963,2.507,7.888,7.209,7.888c1.671,0,3.813-0.574,5.38-1.202l-0.888,4.545c-1.62,0.47-3.395,0.626-5.119,0.626
		c-7.051,0-11.804-3.76-11.804-11.125c0-9.037,5.275-16.768,14.521-16.768c2.82,0,4.91,0.366,6.895,1.045L236.116,191.984z"/>
	<path fill="#FFFFFF" d="M244.417,187.336h4.91l-5.641,26.639h-4.911L244.417,187.336z M250.947,181.381h-5.537l1.149-5.537h5.537
		L250.947,181.381z"/>
	<path fill="#FFFFFF" d="M268.808,186.708c7.156,0,11.805,4.335,11.805,11.649c0,9.037-5.328,16.244-14.887,16.244
		c-7.313,0-12.118-3.969-12.118-11.857C253.608,193.865,259.041,186.708,268.808,186.708z M265.674,210.632
		c5.537,0,9.716-6.268,9.716-12.275c0-3.97-2.351-7.678-6.791-7.678c-6.529,0-9.768,6.895-9.768,12.432
		C258.831,207.341,261.025,210.632,265.674,210.632z M273.352,176.105h5.85l-7.051,7.522h-3.709L273.352,176.105z"/>
	<path fill="#FFFFFF" d="M289.541,191.41c0.209-1.097,0.523-2.507,0.732-4.074h4.597l-0.836,4.231h0.105
		c1.567-2.507,4.439-4.858,9.089-4.858c5.171,0,8.879,2.717,8.879,8.358c0,1.568-0.313,3.343-0.626,4.858l-2.925,14.051h-4.91
		l3.29-15.931c0.157-0.888,0.261-1.933,0.261-2.507c0-2.769-1.828-4.858-4.858-4.858c-6.059,0-9.036,6.581-9.715,9.872
		l-2.821,13.424h-4.91L289.541,191.41z"/>
	<path fill="#FFFFFF" d="M364.857,183.47c-2.194-1.044-5.432-1.985-9.506-1.985c-11.074,0-16.455,8.148-16.455,16.715
		c0,7.992,5.328,11.805,12.432,11.805c1.097,0,3.238-0.105,4.335-0.471l2.403-11.23h-7.626l1.045-4.283h12.693l-4.231,19.484
		c-2.403,0.522-5.119,1.096-9.455,1.096c-9.716,0-17.133-5.118-17.133-16.662c0-8.932,6.163-21.05,21.886-21.05
		c5.432,0,8.723,1.097,11.178,2.089L364.857,183.47z"/>
	<path fill="#FFFFFF" d="M389.819,213.505c-2.559,0.626-5.223,1.096-7.887,1.096c-6.477,0-12.275-2.611-12.275-12.014
		c0-7.365,5.171-15.879,14.573-15.879c6.425,0,10.029,3.866,10.029,10.186c0,1.776-0.209,3.291-0.47,4.858h-18.752
		c-0.105,0.574-0.157,1.097-0.157,1.671c0,5.589,3.448,7.209,8.201,7.209c2.455,0,5.119-0.626,7.522-1.62L389.819,213.505z
		 M389.193,198.096c0.105-0.784,0.157-1.41,0.157-2.037c0-3.134-1.933-5.38-5.641-5.38c-4.022,0-7.105,3.5-8.149,7.417H389.193z"/>
	<path fill="#FFFFFF" d="M402.717,191.41c0.209-1.097,0.523-2.507,0.732-4.074h4.597l-0.836,4.231h0.105
		c1.567-2.507,4.439-4.858,9.089-4.858c5.171,0,8.879,2.717,8.879,8.358c0,1.568-0.313,3.343-0.626,4.858l-2.925,14.051h-4.91
		l3.29-15.931c0.157-0.888,0.261-1.933,0.261-2.507c0-2.769-1.828-4.858-4.858-4.858c-6.059,0-9.036,6.581-9.715,9.872
		l-2.821,13.424h-4.91L402.717,191.41z"/>
	<path fill="#FFFFFF" d="M450.768,213.505c-2.559,0.626-5.223,1.096-7.887,1.096c-6.477,0-12.275-2.611-12.275-12.014
		c0-7.365,5.171-15.879,14.573-15.879c6.425,0,10.029,3.866,10.029,10.186c0,1.776-0.209,3.291-0.47,4.858h-18.752
		c-0.104,0.574-0.157,1.097-0.157,1.671c0,5.589,3.448,7.209,8.201,7.209c2.455,0,5.119-0.626,7.522-1.62L450.768,213.505z
		 M450.142,198.096c0.105-0.784,0.157-1.41,0.157-2.037c0-3.134-1.933-5.38-5.642-5.38c-4.021,0-7.103,3.5-8.148,7.417H450.142z"/>
	<path fill="#FFFFFF" d="M463.667,191.41c0.209-1.097,0.522-2.507,0.731-4.074h4.597l-0.836,4.231h0.104
		c1.568-2.507,4.44-4.858,9.089-4.858c0.47,0,1.306,0.105,2.246,0.471l-1.097,4.335c-0.94-0.366-1.723-0.523-2.089-0.523
		c-6.059,0-9.037,6.581-9.716,9.872l-2.769,13.111h-4.91L463.667,191.41z"/>
	<path fill="#FFFFFF" d="M485.079,188.067c2.351-0.784,5.485-1.358,7.418-1.358c5.38,0,10.551,2.089,10.551,8.462
		c0,1.202-0.209,2.925-0.47,4.179c-0.992,4.963-2.089,9.924-2.769,14.626h-4.545l0.888-4.44h-0.105
		c-1.672,3.186-5.119,5.066-8.671,5.066c-4.492,0-8.514-2.35-8.514-7.364c0-7.574,6.843-9.716,15.775-9.716
		c1.045,0,2.351,0.105,3.552,0.157c0.104-0.523,0.26-1.097,0.26-1.723c0-3.814-2.507-5.276-6.111-5.276
		c-2.873,0-5.955,0.94-8.149,2.246L485.079,188.067z M493.385,201.177c-3.709,0-9.298,0.992-9.298,5.85
		c0,2.351,2.037,3.604,4.388,3.604c4.962,0,8.096-4.963,8.671-9.455H493.385z"/>
	<path fill="#FFFFFF" d="M516.991,174.799h4.91l-8.305,39.176h-4.911L516.991,174.799z"/>
	<path fill="#FFFFFF" d="M562.327,205.148c-0.627,2.977-1.149,5.902-1.515,8.827h-4.597c0.261-1.254,0.47-2.717,0.888-4.074h-0.105
		c-1.828,3.552-5.067,4.701-9.089,4.701c-6.426,0-9.872-5.118-9.872-11.178c0-8.357,4.701-16.715,13.79-16.715
		c3.604,0,7.051,1.568,8.566,5.014h0.105l3.5-16.924h4.91L562.327,205.148z M549.739,210.632c6.163,0,8.984-7.678,8.984-12.693
		c0-3.97-2.351-7.26-6.633-7.26c-5.798,0-8.828,7.365-8.828,12.38C543.261,207.289,545.246,210.632,549.739,210.632z"/>
	<path fill="#FFFFFF" d="M590.111,213.505c-2.559,0.626-5.223,1.096-7.887,1.096c-6.477,0-12.275-2.611-12.275-12.014
		c0-7.365,5.171-15.879,14.573-15.879c6.425,0,10.03,3.866,10.03,10.186c0,1.776-0.209,3.291-0.471,4.858h-18.753
		c-0.104,0.574-0.157,1.097-0.157,1.671c0,5.589,3.448,7.209,8.201,7.209c2.455,0,5.119-0.626,7.522-1.62L590.111,213.505z
		 M589.484,198.096c0.105-0.784,0.157-1.41,0.157-2.037c0-3.134-1.933-5.38-5.642-5.38c-4.021,0-7.103,3.5-8.148,7.417H589.484z"/>
</g>
<g>
	<path fill="#FFFFFF" d="M116.633,385.819c-3.513-1.378-5.442-1.997-9.024-1.997c-3.858,0-8.404,1.377-8.404,6.406
		c0,9.23,20.666,7.095,20.666,22.938c0,10.264-7.922,14.327-17.566,14.327c-3.375,0-6.681-0.964-9.85-1.997l0.689-6.406
		c2.342,0.964,6.474,2.342,9.988,2.342c3.926,0,9.436-2.204,9.436-7.853c0-10.746-20.665-7.784-20.665-22.731
		c0-8.542,6.751-13.088,15.43-13.088c3.168,0,6.958,0.551,10.264,1.722L116.633,385.819z"/>
	<path fill="#FFFFFF" d="M159.681,426.666h-6.268v-5.58h-0.138c-1.929,3.995-6.613,6.406-11.504,6.406
		c-9.093,0-13.157-5.648-13.157-15.085v-20.872h6.475v18.185c0,8.198,1.791,12.192,7.44,12.537c7.371,0,10.677-5.924,10.677-14.466
		v-16.256h6.475V426.666z"/>
	<path fill="#FFFFFF" d="M170.696,375.004h6.475v21.353h0.139c1.997-3.238,5.51-5.648,11.641-5.648
		c10.195,0,15.154,8.335,15.154,17.772c0,9.643-4.477,19.011-15.085,19.011c-6.269,0-10.264-3.168-11.986-5.786h-0.138v4.959h-6.2
		V375.004z M187.573,395.944c-7.027,0-10.402,6.682-10.402,13.226c0,5.855,3.031,13.088,10.333,13.088
		c6.958,0,9.85-7.784,9.713-13.295C197.354,402.626,194.599,395.944,187.573,395.944z"/>
	<path fill="#FFFFFF" d="M210.16,419.778c2.549,1.653,6.2,2.48,8.059,2.48c2.962,0,6.613-1.24,6.613-5.029
		c0-6.406-15.223-5.855-15.223-15.705c0-7.301,5.442-10.814,12.399-10.814c3.031,0,5.51,0.619,8.059,1.377l-0.551,5.649
		c-1.447-0.896-5.304-1.791-6.82-1.791c-3.307,0-6.2,1.378-6.2,4.271c0,7.164,15.224,5.097,15.224,16.325
		c0,7.508-5.993,10.952-12.262,10.952c-3.306,0-6.681-0.344-9.643-1.928L210.16,419.778z"/>
	<path fill="#FFFFFF" d="M266.503,425.22c-2.48,0.896-5.304,2.273-11.09,2.273c-12.468,0-18.186-7.577-18.186-19.011
		c0-10.401,6.544-17.772,16.463-17.772c11.711,0,15.499,8.542,15.499,19.838h-25.073c0,6.957,5.442,11.71,11.572,11.71
		c4.271,0,9.23-2.204,10.814-3.513V425.22z M262.301,405.725c0-5.373-3.169-9.781-8.749-9.781c-6.337,0-8.955,5.235-9.436,9.781
		H262.301z"/>
	<path fill="#FFFFFF" d="M300.181,397.46c-2.48-1.033-4.96-1.516-7.027-1.516c-7.232,0-11.297,6.475-11.297,13.157
		c0,6.268,3.375,13.156,11.711,13.156c2.204,0,4.959-0.689,6.957-1.997l0.482,5.786c-2.687,1.24-5.786,1.446-8.128,1.446
		c-10.608,0-17.91-8.335-17.91-18.391c0-10.677,7.164-18.392,17.91-18.392c2.617,0,5.993,0.619,7.853,1.377L300.181,397.46z"/>
	<path fill="#FFFFFF" d="M308.442,391.536h6.062v5.442h0.138c1.723-3.651,5.442-6.268,9.162-6.268c1.929,0,2.893,0.206,4.271,0.482
		v5.787c-1.171-0.482-2.48-0.62-3.582-0.62c-5.786,0-9.575,5.511-9.575,14.328v15.981h-6.475V391.536z"/>
	<path fill="#FFFFFF" d="M362.167,425.22c-2.48,0.896-5.304,2.273-11.09,2.273c-12.468,0-18.186-7.577-18.186-19.011
		c0-10.401,6.544-17.772,16.463-17.772c11.711,0,15.499,8.542,15.499,19.838H339.78c0,6.957,5.442,11.71,11.572,11.71
		c4.271,0,9.23-2.204,10.814-3.513V425.22z M357.965,405.725c0-5.373-3.169-9.781-8.749-9.781c-6.337,0-8.955,5.235-9.436,9.781
		H357.965z"/>
	<path fill="#FFFFFF" d="M392.195,396.771h-9.299v19.219c0,4.064,2.48,6.268,5.442,6.268c1.997,0,3.444-0.62,4.409-1.24v5.511
		c-1.446,0.413-3.445,0.964-5.511,0.964c-6.681,0-10.814-3.168-10.814-10.194v-20.528H368.5v-5.235h7.922v-8.129l6.475-2.067v10.195
		h9.299V396.771z"/>
	<path fill="#FFFFFF" d="M401.972,394.015c3.238-1.929,7.095-3.306,11.573-3.306c10.057,0,14.12,4.959,14.12,14.534v14.534
		c0,3.995,0.138,5.855,0.276,6.888h-6.062v-4.546h-0.138c-1.516,2.135-4.96,5.373-10.884,5.373c-7.578,0-12.882-3.306-12.882-10.952
		c0-8.817,9.644-11.572,16.325-11.572c2.549,0,4.34,0,6.888,0.138c0-6.062-2.204-9.162-8.679-9.162
		c-3.651,0-7.578,1.378-10.195,3.582L401.972,394.015z M421.191,409.928c-1.377,0-2.755-0.138-4.132-0.138
		c-3.513,0-12.192,0.551-12.192,6.751c0,3.72,3.581,5.717,6.544,5.717c6.406,0,9.781-3.995,9.781-9.23V409.928z"/>
	<path fill="#FFFFFF" d="M438.613,391.536h6.062v5.442h0.138c1.723-3.651,5.442-6.268,9.162-6.268c1.929,0,2.893,0.206,4.271,0.482
		v5.787c-1.171-0.482-2.48-0.62-3.582-0.62c-5.786,0-9.575,5.511-9.575,14.328v15.981h-6.475V391.536z"/>
	<path fill="#FFFFFF" d="M471.054,376.726h7.508l-9.024,9.919h-4.615L471.054,376.726z M466.232,391.536h6.475v35.131h-6.475
		V391.536z"/>
	<path fill="#FFFFFF" d="M486.205,394.015c3.238-1.929,7.095-3.306,11.573-3.306c10.057,0,14.12,4.959,14.12,14.534v14.534
		c0,3.995,0.138,5.855,0.276,6.888h-6.062v-4.546h-0.138c-1.516,2.135-4.96,5.373-10.884,5.373c-7.578,0-12.882-3.306-12.882-10.952
		c0-8.817,9.644-11.572,16.325-11.572c2.549,0,4.34,0,6.888,0.138c0-6.062-2.204-9.162-8.679-9.162
		c-3.651,0-7.578,1.378-10.195,3.582L486.205,394.015z M505.424,409.928c-1.377,0-2.755-0.138-4.132-0.138
		c-3.513,0-12.192,0.551-12.192,6.751c0,3.72,3.581,5.717,6.544,5.717c6.406,0,9.781-3.995,9.781-9.23V409.928z"/>
	<path fill="#FFFFFF" d="M566.86,421.707h-0.138c-1.722,2.617-5.717,5.786-11.985,5.786c-10.608,0-15.086-9.436-15.086-19.011
		c0-9.437,4.96-17.772,15.154-17.772c6.131,0,9.644,2.41,11.641,5.648h0.138v-21.353h6.475v51.662h-6.2V421.707z M556.252,422.258
		c7.302,0,10.333-7.233,10.333-13.088c0-6.544-3.375-13.226-10.401-13.226c-7.026,0-9.782,6.613-9.643,13.019
		C546.401,414.474,549.295,422.258,556.252,422.258z"/>
	<path fill="#FFFFFF" d="M611.008,425.22c-2.479,0.896-5.304,2.273-11.09,2.273c-12.468,0-18.186-7.577-18.186-19.011
		c0-10.401,6.544-17.772,16.464-17.772c11.71,0,15.498,8.542,15.498,19.838h-25.073c0,6.957,5.442,11.71,11.572,11.71
		c4.272,0,9.231-2.204,10.814-3.513V425.22z M606.808,405.725c0-5.373-3.17-9.781-8.749-9.781c-6.337,0-8.955,5.235-9.436,9.781
		H606.808z"/>
	<path fill="#FFFFFF" d="M642.482,378.586h26.933v6.062h-20.044v14.052h18.253v6.062h-18.253v15.843h20.044v6.062h-26.933V378.586z"
		/>
	<path fill="#FFFFFF" d="M704.679,421.707h-0.138c-1.722,2.617-5.716,5.786-11.985,5.786c-10.608,0-15.086-9.436-15.086-19.011
		c0-9.437,4.959-17.772,15.155-17.772c6.13,0,9.643,2.41,11.641,5.648h0.139v-21.353h6.475v51.662h-6.2V421.707z M694.07,422.258
		c7.301,0,10.333-7.233,10.333-13.088c0-6.544-3.376-13.226-10.402-13.226c-7.026,0-9.782,6.613-9.643,13.019
		C684.219,414.474,687.112,422.258,694.07,422.258z"/>
	<path fill="#FFFFFF" d="M752.96,426.666h-6.269v-5.58h-0.138c-1.928,3.995-6.612,6.406-11.504,6.406
		c-9.093,0-13.156-5.648-13.156-15.085v-20.872h6.475v18.185c0,8.198,1.791,12.192,7.44,12.537c7.371,0,10.677-5.924,10.677-14.466
		v-16.256h6.475V426.666z"/>
	<path fill="#FFFFFF" d="M786.293,397.46c-2.479-1.033-4.959-1.516-7.026-1.516c-7.232,0-11.296,6.475-11.296,13.157
		c0,6.268,3.375,13.156,11.71,13.156c2.203,0,4.959-0.689,6.957-1.997l0.483,5.786c-2.687,1.24-5.787,1.446-8.129,1.446
		c-10.608,0-17.91-8.335-17.91-18.391c0-10.677,7.164-18.392,17.91-18.392c2.617,0,5.993,0.619,7.852,1.377L786.293,397.46z"/>
	<path fill="#FFFFFF" d="M796.207,394.015c3.238-1.929,7.094-3.306,11.571-3.306c10.057,0,14.121,4.959,14.121,14.534v14.534
		c0,3.995,0.138,5.855,0.275,6.888h-6.061v-4.546h-0.138c-1.514,2.135-4.959,5.373-10.884,5.373
		c-7.577,0-12.881-3.306-12.881-10.952c0-8.817,9.643-11.572,16.326-11.572c2.548,0,4.339,0,6.887,0.138
		c0-6.062-2.203-9.162-8.679-9.162c-3.651,0-7.577,1.378-10.196,3.582L796.207,394.015z M815.424,409.928
		c-1.377,0-2.754-0.138-4.133-0.138c-3.513,0-12.192,0.551-12.192,6.751c0,3.72,3.582,5.717,6.544,5.717
		c6.406,0,9.78-3.995,9.78-9.23V409.928z"/>
	<path fill="#FFFFFF" d="M855.166,397.46c-2.479-1.033-4.959-1.516-7.026-1.516c-7.232,0-11.296,6.475-11.296,13.157
		c0,6.268,3.374,13.156,11.71,13.156c2.203,0,4.959-0.689,6.957-1.997l0.482,5.786c-2.685,1.24-5.786,1.446-8.128,1.446
		c-10.608,0-17.91-8.335-17.91-18.391c0-10.677,7.164-18.392,17.91-18.392c2.617,0,5.993,0.619,7.852,1.377L855.166,397.46z"/>
	<path fill="#FFFFFF" d="M871.141,383.683h-7.301v-7.301h7.301V383.683z M864.252,391.536h6.475v35.131h-6.475V391.536z"/>
	<path fill="#FFFFFF" d="M898.141,390.709c10.677,0,17.842,7.715,17.842,18.392c0,10.057-7.303,18.391-17.842,18.391
		c-10.608,0-17.91-8.335-17.91-18.391C880.232,398.424,887.396,390.709,898.141,390.709z M898.141,422.258
		c7.577,0,10.953-6.888,10.953-13.156c0-6.682-4.064-13.157-10.953-13.157c-6.957,0-11.021,6.475-11.021,13.157
		C887.121,415.37,890.495,422.258,898.141,422.258z M899.726,376.726h7.508l-9.023,9.919h-4.615L899.726,376.726z"/>
	<path fill="#FFFFFF" d="M924.656,391.536h6.269v5.58h0.137c1.93-3.995,6.614-6.406,11.504-6.406
		c9.093,0,13.158,5.648,13.158,15.085v20.872h-6.475v-18.185c0-8.197-1.791-12.192-7.44-12.537c-7.371,0-10.677,5.924-10.677,14.466
		v16.256h-6.475V391.536z"/>
</g>
</svg>
