<?xml version="1.0" encoding="utf-8"?>
<!-- Generator: Adobe Illustrator 17.0.0, SVG Export Plug-In . SVG Version: 6.00 Build 0)  -->
<!DOCTYPE svg PUBLIC "-//W3C//DTD SVG 1.1//EN" "http://www.w3.org/Graphics/SVG/1.1/DTD/svg11.dtd">
<svg version="1.1" id="Capa_1" xmlns="http://www.w3.org/2000/svg" xmlns:xlink="http://www.w3.org/1999/xlink" x="0px" y="0px"
	 width="1201.896px" height="602.292px" viewBox="0 0 1201.896 602.292" enable-background="new 0 0 1201.896 602.292"
	 xml:space="preserve">
<g>
	<path fill="#FFFFFF" d="M105.262,178.482h13.465c9.36,0,20.004,6.53,20.004,34.754c0,18.893-5.257,46.648-27.826,46.648H95.836
		L105.262,178.482z M106.352,247.057h4.168c12.951,0,18.851-13.762,18.851-36.153c0-12.712-5.45-19.593-13.529-19.593h-3.077
		L106.352,247.057z"/>
	<path fill="#FFFFFF" d="M148.539,199.824h8.592l-7.053,60.061h-8.592L148.539,199.824z M151.68,173.934h8.592l-1.795,14.928h-8.592
		L151.68,173.934z"/>
	<path fill="#FFFFFF" d="M165.208,207.871c0.257-2.565,0.513-5.248,0.77-8.047h8.207l-1.154,11.313h0.129
		c1.538-6.531,5.771-12.712,9.745-12.712c1.09,0,2.244,0.116,3.271,0.583l-1.796,15.277c-0.961-0.583-2.18-0.933-3.27-0.933
		c-6.091,0-9.041,9.913-10.131,19.593l-3.077,26.939h-8.592L165.208,207.871z"/>
	<path fill="#FFFFFF" d="M193.163,234.694c0,11.079,3.27,15.161,9.169,15.161c3.526,0,6.925-1.633,10.131-4.315l-1.091,12.362
		c-3.334,1.866-6.988,3.382-10.515,3.382c-9.489,0-15.901-8.396-15.901-26.24c0-18.659,7.95-36.619,18.786-36.619
		c8.144,0,13.529,7.58,13.529,22.858c0,4.548-0.321,8.979-0.834,13.411H193.163z M208.872,223.965
		c0.128-1.399,0.192-2.682,0.192-4.081c0-6.415-1.859-10.03-5.45-10.03c-5.321,0-7.63,5.831-9.297,14.111H208.872z"/>
	<path fill="#FFFFFF" d="M247.149,213.586c-1.667-1.982-3.911-3.032-6.284-3.032c-6.86,0-10.707,11.662-10.707,22.975
		c0,7.813,1.41,15.627,7.31,15.627c2.115,0,4.744-1.049,6.988-3.032l-0.962,12.362c-2.629,2.333-5.449,2.799-8.271,2.799
		c-8.528,0-14.042-10.379-14.042-25.89c0-20.992,7.63-36.97,19.491-36.97c3.206,0,6.284,1.05,8.592,2.332L247.149,213.586z"/>
	<path fill="#FFFFFF" d="M275.616,213.586c-1.667-1.982-3.911-3.032-6.284-3.032c-6.86,0-10.707,11.662-10.707,22.975
		c0,7.813,1.41,15.627,7.31,15.627c2.115,0,4.744-1.049,6.988-3.032l-0.962,12.362c-2.629,2.333-5.449,2.799-8.271,2.799
		c-8.528,0-14.042-10.379-14.042-25.89c0-20.992,7.63-36.97,19.491-36.97c3.206,0,6.284,1.05,8.592,2.332L275.616,213.586z"/>
	<path fill="#FFFFFF" d="M283.884,199.824h8.592l-7.053,60.061h-8.592L283.884,199.824z M287.026,173.934h8.592l-1.795,14.928
		h-8.592L287.026,173.934z"/>
	<path fill="#FFFFFF" d="M330.625,224.781c0,21.109-8.015,36.503-19.685,36.503c-9.36,0-15.003-10.496-15.003-27.406
		c0-20.059,8.464-35.453,19.556-35.453C324.406,198.425,330.625,208.221,330.625,224.781z M321.649,224.898
		c0-7.814-1.475-14.345-6.54-14.345c-6.796,0-10.194,13.645-10.194,24.49c0,7.931,1.795,14.111,6.732,14.111
		C318.315,249.155,321.649,235.161,321.649,224.898z M317.673,174.634h8.528l-8.207,17.026h-5.515L317.673,174.634z"/>
	<path fill="#FFFFFF" d="M339.92,208.454c0.385-3.615,0.705-6.764,0.834-8.63h8.399l-0.577,5.831h0.128
		c2.372-3.965,5.643-7.23,9.361-7.23c6.476,0,10.771,7.348,10.771,19.243c0,4.548-0.641,9.329-1.09,13.062l-3.463,29.155h-8.591
		l3.205-28.339c0.449-4.082,0.962-8.164,0.962-12.596c0-5.015-1.923-8.396-4.681-8.396c-5.963,0-8.143,10.146-9.232,19.126
		l-3.526,30.205h-8.592L339.92,208.454z"/>
	<path fill="#FFFFFF" d="M431.67,172.418l-8.912,74.172c-0.514,5.132-1.026,10.263-1.219,13.295h-8.015l0.834-8.863h-0.129
		c-2.564,6.531-5.771,10.263-10.771,10.263c-7.822,0-11.349-11.895-11.349-24.957c0-17.96,5.386-37.902,16.606-37.902
		c4.231,0,7.502,2.915,10.194,8.514l4.168-34.521H431.67z M401.086,234.928c0,6.064,1.025,14.228,5.258,14.228
		c6.283,0,10.002-13.295,10.002-24.374c0-6.997-1.859-14.228-6.22-14.228C403.971,210.554,401.086,225.947,401.086,234.928z"/>
	<path fill="#FFFFFF" d="M438.915,234.694c0,11.079,3.27,15.161,9.169,15.161c3.526,0,6.925-1.633,10.131-4.315l-1.091,12.362
		c-3.334,1.866-6.988,3.382-10.515,3.382c-9.489,0-15.901-8.396-15.901-26.24c0-18.659,7.95-36.619,18.786-36.619
		c8.144,0,13.529,7.58,13.529,22.858c0,4.548-0.321,8.979-0.834,13.411H438.915z M454.624,223.965
		c0.128-1.399,0.192-2.682,0.192-4.081c0-6.415-1.859-10.03-5.45-10.03c-5.321,0-7.63,5.831-9.297,14.111H454.624z"/>
</g>
<text transform="matrix(0.7367 0 0 1 549.0325 256.6683)" fill="#FFFFFF" font-family="'Impact'" font-size="161.631">Educación</text>
<text transform="matrix(0.7489 0 0 1 549.0316 475.6483)" fill="#FFFFFF" font-family="'Impact'" font-size="231.7892">rtística</text>
<path fill="#FFFFFF" d="M537.097,269.498c-1.193,21.771,8.351,15.806,8.351,15.806l16.701-0.596v16.438h-22.069l-1.491,154.749
	l-24.455,19.753h-5.368c0,0,6.263-157.24,5.965-168.572s-15.508-9.544-15.508-9.544s-21.771-1.193-37.876-0.895
	c-16.105,0.298-14.017,8.947-17.596,17.298c-3.579,8.351-10.14,27.438-43.84,77.541s-58.752,56.366-72.769,55.472
	c-14.017-0.895-22.368-8.947-29.227-26.841c-6.859-17.894,1.789-48.016,11.929-68.892c10.14-20.876,35.788-29.823,32.806-26.841
	c-2.982,2.982-25.052,60.243-16.701,85.892c8.351,25.648,30.718,14.613,38.771,10.438s25.35-24.455,35.49-36.086
	c10.14-11.631,24.455-41.753,29.525-51.296c5.07-9.544,12.228-34.893,12.228-34.893s-12.228-4.474-19.684-5.666
	c-7.456-1.193-16.999,1.193-24.157,2.088c-7.158,0.895-8.351-2.386-8.351-2.386s16.999-8.649,25.35-10.736s21.771,0.895,28.929,0
	c7.158-0.895,16.105-17.298,16.105-17.298l69.787-137.784C534.413,133.503,538.29,247.727,537.097,269.498z M505.782,198.22
	l-39.069,75.752c0,0-5.666,5.965,3.281,6.561c8.947,0.596,11.631-1.491,19.385,0s16.701,4.694,19.385,0.11
	c2.684-4.584,5.965-6.979,4.772-23.974S512.962,207.926,505.782,198.22z"/>
</svg>
