<?xml version="1.0" encoding="utf-8"?>
<!-- Generator: Adobe Illustrator 17.0.0, SVG Export Plug-In . SVG Version: 6.00 Build 0)  -->
<!DOCTYPE svg PUBLIC "-//W3C//DTD SVG 1.1//EN" "http://www.w3.org/Graphics/SVG/1.1/DTD/svg11.dtd">
<svg version="1.1" xmlns="http://www.w3.org/2000/svg" xmlns:xlink="http://www.w3.org/1999/xlink" x="0px" y="0px"
	 width="199.027px" height="199.019px" viewBox="0 0 199.027 199.019" enable-background="new 0 0 199.027 199.019"
	 xml:space="preserve">
<g id="Capa_1" display="none">
</g>
<g id="Capa_2">
	<path fill="#1D1D1B" d="M27.955,0C27.955,0,0.5,2.167,0.5,27.167S0.5,170,0.5,170s1.788,29,28.288,29s137.167,0,137.167,0
		s33.545,1.75,33.545-28s0-138.5,0-138.5S201.455,0,171.955,0S27.955,0,27.955,0z"/>
	<path fill="#FFFFFF" d="M105.788,91.75h-25.75v30.75h25.75V199h31.25v-77l25.75-0.5l3.75-29.75h-29.5v-25c0,0-0.25-8.25,10.25-8.25
		s21.25,0,21.25,0V31c0,0-18.75,0-30.5,0s-30.75,5.5-31.5,28.75C106.309,69.501,105.788,91.75,105.788,91.75z"/>
</g>
</svg>
