<?xml version="1.0" encoding="utf-8"?>
<!-- Generator: Adobe Illustrator 17.0.0, SVG Export Plug-In . SVG Version: 6.00 Build 0)  -->
<!DOCTYPE svg PUBLIC "-//W3C//DTD SVG 1.1//EN" "http://www.w3.org/Graphics/SVG/1.1/DTD/svg11.dtd">
<svg version="1.1" xmlns="http://www.w3.org/2000/svg" xmlns:xlink="http://www.w3.org/1999/xlink" x="0px" y="0px"
	 width="199.027px" height="199.019px" viewBox="0 0 199.027 199.019" enable-background="new 0 0 199.027 199.019"
	 xml:space="preserve">
<g id="Capa_1" display="none">
</g>
<g id="Capa_2">
	<path fill="#3B579E" d="M28.167,0c0,0-27.455,2.167-27.455,27.167s0,142.833,0,142.833S2.5,199,29,199s137.167,0,137.167,0
		s33.545,1.75,33.545-28s0-138.5,0-138.5S201.667,0,172.167,0S28.167,0,28.167,0z"/>
	<path fill="#FFFFFF" d="M106,91.75H80.25v30.75H106V199h31.25v-77l25.75-0.5l3.75-29.75h-29.5v-25c0,0-0.25-8.25,10.25-8.25
		s21.25,0,21.25,0V31c0,0-18.75,0-30.5,0s-30.75,5.5-31.5,28.75C106.521,69.501,106,91.75,106,91.75z"/>
</g>
</svg>
