<svg xmlns="http://www.w3.org/2000/svg" viewBox="0 0 512 512" width="200" height="210">
  <!-- Fondo oscuro del icono -->
  <rect width="512" height="512" rx="15%" fill="#1D1D1B"/>
  <!-- Contenido del icono -->
  <g>
    <!-- Borde del logo -->
    <path d="M349.33 69.33H162.67A93.34 93.34 0 0069.33 162.67v186.66a93.34 93.34 0 0093.34 93.34h186.66a93.34 93.34 0 0093.34-93.34V162.67a93.34 93.34 0 00-93.34-93.34zm62.68 280A62.71 62.71 0 01349.33 412H162.67a62.71 62.71 0 01-62.68-62.68V162.67a62.71 62.71 0 0162.68-62.68h186.66a62.71 62.71 0 0162.68 62.68z" fill="#FFFFFF"/>
    <!-- Círculo interior -->
    <path d="M256 165.87a90.13 90.13 0 1090.13 90.13A90.13 90.13 0 00256 165.87zm0 150.2a60.07 60.07 0 1160.07-60.07 60.07 60.07 0 01-60.07 60.07z" fill="#FFFFFF"/>
    <!-- Puntos y detalles -->
    <circle cx="370.43" cy="139.57" r="21.29" fill="#FFFFFF"/>
  </g>
</svg>
