<?xml version="1.0" encoding="UTF-8"?>
<!DOCTYPE svg PUBLIC "-//W3C//DTD SVG 1.1//EN" "http://www.w3.org/Graphics/SVG/1.1/DTD/svg11.dtd">
<!-- Creator: CorelDRAW X7 -->
<svg xmlns="http://www.w3.org/2000/svg" xml:space="preserve" width="75.3936mm" height="39.8924mm" version="1.1" style="shape-rendering:geometricPrecision; text-rendering:geometricPrecision; image-rendering:optimizeQuality; fill-rule:evenodd; clip-rule:evenodd"
viewBox="0 0 16056 8496"
 xmlns:xlink="http://www.w3.org/1999/xlink">
 <defs>
  <style type="text/css">
   <![CDATA[
    .fil2 {fill:#EF7F1A}
    .fil3 {fill:#00A0E3}
    .fil1 {fill:#009846}
    .fil0 {fill:#1C1B17}
    .fil5 {fill:#727274}
    .fil4 {fill:#FCDF01}
   ]]>
  </style>
 </defs>
 <g id="Capa_x0020_1">
  <metadata id="CorelCorpID_0Corel-Layer"/>
  <path class="fil0" d="M8620 7872l307 -123c38,-17 23,-11 48,-24l486 -180c264,-77 654,-261 844,-326 64,-21 170,-48 225,-71 74,-32 91,-57 192,-87l2563 -975c408,-131 1983,-805 2146,-808l6 2625c-183,18 -3169,2 -3430,1l-2560 -3c-157,0 -750,30 -827,-29zm-344 -6040c60,3 1437,539 1583,596l3170 1200c195,78 374,166 570,231l801 304c43,18 56,20 104,38 69,25 59,18 88,65 -25,19 6,0 -38,23l-5075 2097c-169,61 -1142,475 -1199,473 -3,-34 -32,-968 23,-870 3,5 20,-7 29,-9l136 -27c191,-39 316,-119 482,-217 193,-115 356,-238 512,-409 805,-881 399,-1694 -533,-2310 -88,-58 -368,-179 -484,-202 -96,-19 -152,9 -170,-64 -14,-58 -6,-820 1,-919zm-2002 558l-6 3844c82,35 158,71 239,95l1149 484c560,257 485,30 485,788 0,79 5,170 -18,227 -75,28 -380,-122 -484,-166l-465 -199c-112,-49 -391,-131 -489,-182l-470 -197c-161,-73 -310,-124 -474,-193l-1422 -579c-34,-15 -80,-34 -112,-49l-87 -42c-5,-3 -17,-11 -22,-14l-2626 -1052c-167,-66 -329,-123 -475,-193 -155,-73 -310,-116 -470,-191 -18,-240 -15,-782 -6,-1046l2836 -1114c75,-34 151,-60 231,-93l2149 -843c159,-64 322,-128 481,-187 169,-64 313,-118 463,-185l1453 -555 2 885c-99,65 -344,153 -459,197l-1046 414c-48,22 -75,44 -100,53 -90,34 -185,50 -257,93zm2289 -1730c74,-48 1494,-20 1695,-20 682,0 5114,-21 5159,14l13 29c1,4 4,10 5,15l4 105c-1,55 -1,109 -1,163 0,114 0,228 0,343 -1,222 -1,444 -1,667 -1,428 20,914 -4,1335 -71,2 -371,-118 -449,-151l-1063 -412c-172,-97 -223,-84 -333,-123l-1368 -550c-81,-33 -160,-49 -233,-79l-1980 -763c-30,-13 -22,-9 -50,-22 -126,-60 -1360,-510 -1394,-551zm-8503 7761c44,47 109,24 245,24 1591,-2 15610,6 15691,-26 31,-268 11,-1386 11,-1737l0 -6491c0,-209 27,-145 -610,-145l-11450 3c-1256,0 -2512,0 -3768,0 -172,0 -136,-24 -136,376 0,959 -21,7951 17,7996z"/>
  <path class="fil1" d="M1593 4266c48,-74 117,-80 210,-111l2644 -1104c150,-72 309,-129 478,-205 66,-30 392,-193 471,-192l6 3177c-94,26 -170,-36 -244,-68l-1186 -495c-78,-35 -171,-58 -247,-98l-1188 -505c-173,-72 -170,-60 -335,-148 -103,-55 -192,-66 -257,-94l-352 -157zm4681 -1876c72,-43 167,-59 257,-93 25,-9 52,-31 100,-53l1046 -414c115,-44 360,-132 459,-197l-2 -885 -1453 555c-150,67 -294,121 -463,185 -159,59 -322,123 -481,187l-2149 843c-80,33 -156,59 -231,93l-2836 1114c-9,264 -12,806 6,1046 160,75 315,118 470,191 146,70 308,127 475,193l2626 1052c5,3 17,11 22,14l87 42c32,15 78,34 112,49l1422 579c164,69 313,120 474,193l470 197c98,51 377,133 489,182l465 199c104,44 409,194 484,166 23,-57 18,-148 18,-227 0,-758 75,-531 -485,-788l-1149 -484c-81,-24 -157,-60 -239,-95l6 -3844z"/>
  <path class="fil2" d="M8276 1832c-7,99 -15,861 -1,919 18,73 74,45 170,64 116,23 396,144 484,202 932,616 1338,1429 533,2310 -156,171 -319,294 -512,409 -166,98 -291,178 -482,217l-136 27c-9,2 -26,14 -29,9 -55,-98 -26,836 -23,870 57,2 1030,-412 1199,-473l5075 -2097c44,-23 13,-4 38,-23 -29,-47 -19,-40 -88,-65 -48,-18 -61,-20 -104,-38l-801 -304c-196,-65 -375,-153 -570,-231l-3170 -1200c-146,-57 -1523,-593 -1583,-596z"/>
  <path class="fil3" d="M8563 660c34,41 1268,491 1394,551 28,13 20,9 50,22l1980 763c73,30 152,46 233,79l1368 550c110,39 161,26 333,123l1063 412c78,33 378,153 449,151 24,-421 3,-907 4,-1335 0,-223 0,-445 1,-667 0,-115 0,-229 0,-343 0,-54 0,-108 1,-163l-4 -105c-1,-5 -4,-11 -5,-15l-13 -29c-45,-35 -4477,-14 -5159,-14 -201,0 -1621,-28 -1695,20z"/>
  <path class="fil4" d="M8620 7872c77,59 670,29 827,29l2560 3c261,1 3247,17 3430,-1l-6 -2625c-163,3 -1738,677 -2146,808l-2563 975c-101,30 -118,55 -192,87 -55,23 -161,50 -225,71 -190,65 -580,249 -844,326l-486 180c-25,13 -10,7 -48,24l-307 123z"/>
  <path class="fil0" d="M1945 4423c65,28 154,39 257,94 165,88 162,76 335,148l1188 505c76,40 169,63 247,98l1186 495c74,32 150,94 244,68l-6 -3177c-79,-1 -405,162 -471,192 -169,76 -328,133 -478,205l-2644 1104c-93,31 -162,37 -210,111l352 157z"/>
  <path class="fil5" d="M60 8421c-38,-45 -17,-7037 -17,-7996 0,-400 -36,-376 136,-376 1256,0 2512,0 3768,0l11450 -3c637,0 610,-64 610,145l0 6491c0,351 20,1469 -11,1737 -81,32 -14100,24 -15691,26 -136,0 -201,23 -245,-24zm-60 58c283,32 697,8 990,8l14064 -5c284,0 733,26 997,-10l5 -8450c-217,-39 -3688,-14 -3995,-13l-11053 0c-297,0 -721,-24 -1002,9l-6 8461z"/>
 </g>
</svg>
