<?xml version="1.0" encoding="utf-8"?>
<!-- Generator: Adobe Illustrator 17.0.0, SVG Export Plug-In . SVG Version: 6.00 Build 0)  -->
<!DOCTYPE svg PUBLIC "-//W3C//DTD SVG 1.1//EN" "http://www.w3.org/Graphics/SVG/1.1/DTD/svg11.dtd">
<svg version="1.1" id="Capa_1" xmlns="http://www.w3.org/2000/svg" xmlns:xlink="http://www.w3.org/1999/xlink" x="0px" y="0px"
	 width="561.804px" height="87.49px" viewBox="115.266 97.859 561.804 87.49" enable-background="new 115.266 97.859 561.804 87.49"
	 xml:space="preserve">
<g id="Capa_3" display="none">
	
		<rect x="115.274" y="175.6" display="inline" fill="none" stroke="#009640" stroke-width="0.25" stroke-miterlimit="10" width="19.33" height="19.33"/>
	
		<rect x="134.605" y="175.6" display="inline" fill="none" stroke="#009640" stroke-width="0.25" stroke-miterlimit="10" width="19.33" height="19.33"/>
	
		<rect x="153.935" y="175.6" display="inline" fill="none" stroke="#009640" stroke-width="0.25" stroke-miterlimit="10" width="19.33" height="19.33"/>
	
		<rect x="173.265" y="175.6" display="inline" fill="none" stroke="#009640" stroke-width="0.25" stroke-miterlimit="10" width="19.33" height="19.33"/>
	
		<rect x="192.595" y="175.6" display="inline" fill="none" stroke="#009640" stroke-width="0.25" stroke-miterlimit="10" width="19.33" height="19.33"/>
	
		<rect x="211.925" y="175.6" display="inline" fill="none" stroke="#009640" stroke-width="0.25" stroke-miterlimit="10" width="19.33" height="19.33"/>
	
		<rect x="231.255" y="175.6" display="inline" fill="none" stroke="#009640" stroke-width="0.25" stroke-miterlimit="10" width="19.33" height="19.33"/>
	
		<rect x="250.585" y="175.6" display="inline" fill="none" stroke="#009640" stroke-width="0.25" stroke-miterlimit="10" width="19.33" height="19.33"/>
	
		<rect x="269.915" y="175.6" display="inline" fill="none" stroke="#009640" stroke-width="0.25" stroke-miterlimit="10" width="19.33" height="19.33"/>
	
		<rect x="289.245" y="175.6" display="inline" fill="none" stroke="#009640" stroke-width="0.25" stroke-miterlimit="10" width="19.33" height="19.33"/>
	
		<rect x="308.575" y="175.6" display="inline" fill="none" stroke="#009640" stroke-width="0.25" stroke-miterlimit="10" width="19.33" height="19.33"/>
	
		<rect x="327.905" y="175.6" display="inline" fill="none" stroke="#009640" stroke-width="0.25" stroke-miterlimit="10" width="19.33" height="19.33"/>
	
		<rect x="347.235" y="175.6" display="inline" fill="none" stroke="#009640" stroke-width="0.25" stroke-miterlimit="10" width="19.33" height="19.33"/>
	
		<rect x="366.565" y="175.6" display="inline" fill="none" stroke="#009640" stroke-width="0.25" stroke-miterlimit="10" width="19.33" height="19.33"/>
	
		<rect x="385.895" y="175.6" display="inline" fill="none" stroke="#009640" stroke-width="0.25" stroke-miterlimit="10" width="19.33" height="19.33"/>
	
		<rect x="405.225" y="175.6" display="inline" fill="none" stroke="#009640" stroke-width="0.25" stroke-miterlimit="10" width="19.33" height="19.33"/>
	
		<rect x="424.556" y="175.6" display="inline" fill="none" stroke="#009640" stroke-width="0.25" stroke-miterlimit="10" width="19.33" height="19.33"/>
	
		<rect x="443.886" y="175.6" display="inline" fill="none" stroke="#009640" stroke-width="0.25" stroke-miterlimit="10" width="19.33" height="19.33"/>
	
		<rect x="463.216" y="175.6" display="inline" fill="none" stroke="#009640" stroke-width="0.25" stroke-miterlimit="10" width="19.33" height="19.33"/>
	
		<rect x="482.546" y="175.6" display="inline" fill="none" stroke="#009640" stroke-width="0.25" stroke-miterlimit="10" width="19.33" height="19.33"/>
	
		<rect x="501.876" y="175.6" display="inline" fill="none" stroke="#009640" stroke-width="0.25" stroke-miterlimit="10" width="19.33" height="19.33"/>
	
		<rect x="521.206" y="175.6" display="inline" fill="none" stroke="#009640" stroke-width="0.25" stroke-miterlimit="10" width="19.33" height="19.33"/>
	
		<rect x="540.536" y="175.6" display="inline" fill="none" stroke="#009640" stroke-width="0.25" stroke-miterlimit="10" width="19.33" height="19.33"/>
	
		<rect x="559.866" y="175.6" display="inline" fill="none" stroke="#009640" stroke-width="0.25" stroke-miterlimit="10" width="19.33" height="19.33"/>
	
		<rect x="579.196" y="175.6" display="inline" fill="none" stroke="#009640" stroke-width="0.25" stroke-miterlimit="10" width="19.33" height="19.33"/>
	
		<rect x="598.526" y="175.6" display="inline" fill="none" stroke="#009640" stroke-width="0.25" stroke-miterlimit="10" width="19.33" height="19.33"/>
	
		<rect x="617.856" y="175.6" display="inline" fill="none" stroke="#009640" stroke-width="0.25" stroke-miterlimit="10" width="19.33" height="19.33"/>
	
		<rect x="637.186" y="175.6" display="inline" fill="none" stroke="#009640" stroke-width="0.25" stroke-miterlimit="10" width="19.33" height="19.33"/>
	
		<rect x="656.516" y="175.6" display="inline" fill="none" stroke="#009640" stroke-width="0.25" stroke-miterlimit="10" width="19.33" height="19.33"/>
	
		<rect x="675.846" y="175.6" display="inline" fill="none" stroke="#009640" stroke-width="0.25" stroke-miterlimit="10" width="19.33" height="19.33"/>
	
		<rect x="115.274" y="156.27" display="inline" fill="none" stroke="#009640" stroke-width="0.25" stroke-miterlimit="10" width="19.33" height="19.33"/>
	
		<rect x="134.605" y="156.27" display="inline" fill="none" stroke="#009640" stroke-width="0.25" stroke-miterlimit="10" width="19.33" height="19.33"/>
	
		<rect x="153.935" y="156.27" display="inline" fill="none" stroke="#009640" stroke-width="0.25" stroke-miterlimit="10" width="19.33" height="19.33"/>
	
		<rect x="173.265" y="156.27" display="inline" fill="none" stroke="#009640" stroke-width="0.25" stroke-miterlimit="10" width="19.33" height="19.33"/>
	
		<rect x="192.595" y="156.27" display="inline" fill="none" stroke="#009640" stroke-width="0.25" stroke-miterlimit="10" width="19.33" height="19.33"/>
	
		<rect x="211.925" y="156.27" display="inline" fill="none" stroke="#009640" stroke-width="0.25" stroke-miterlimit="10" width="19.33" height="19.33"/>
	
		<rect x="231.255" y="156.27" display="inline" fill="none" stroke="#009640" stroke-width="0.25" stroke-miterlimit="10" width="19.33" height="19.33"/>
	
		<rect x="250.585" y="156.27" display="inline" fill="none" stroke="#009640" stroke-width="0.25" stroke-miterlimit="10" width="19.33" height="19.33"/>
	
		<rect x="269.915" y="156.27" display="inline" fill="none" stroke="#009640" stroke-width="0.25" stroke-miterlimit="10" width="19.33" height="19.33"/>
	
		<rect x="289.245" y="156.27" display="inline" fill="none" stroke="#009640" stroke-width="0.25" stroke-miterlimit="10" width="19.33" height="19.33"/>
	
		<rect x="308.575" y="156.27" display="inline" fill="none" stroke="#009640" stroke-width="0.25" stroke-miterlimit="10" width="19.33" height="19.33"/>
	
		<rect x="327.905" y="156.27" display="inline" fill="none" stroke="#009640" stroke-width="0.25" stroke-miterlimit="10" width="19.33" height="19.33"/>
	
		<rect x="347.235" y="156.27" display="inline" fill="none" stroke="#009640" stroke-width="0.25" stroke-miterlimit="10" width="19.33" height="19.33"/>
	
		<rect x="366.565" y="156.27" display="inline" fill="none" stroke="#009640" stroke-width="0.25" stroke-miterlimit="10" width="19.33" height="19.33"/>
	
		<rect x="385.895" y="156.27" display="inline" fill="none" stroke="#009640" stroke-width="0.25" stroke-miterlimit="10" width="19.33" height="19.33"/>
	
		<rect x="405.225" y="156.27" display="inline" fill="none" stroke="#009640" stroke-width="0.25" stroke-miterlimit="10" width="19.33" height="19.33"/>
	
		<rect x="424.556" y="156.27" display="inline" fill="none" stroke="#009640" stroke-width="0.25" stroke-miterlimit="10" width="19.33" height="19.33"/>
	
		<rect x="443.886" y="156.27" display="inline" fill="none" stroke="#009640" stroke-width="0.25" stroke-miterlimit="10" width="19.33" height="19.33"/>
	
		<rect x="463.216" y="156.27" display="inline" fill="none" stroke="#009640" stroke-width="0.25" stroke-miterlimit="10" width="19.33" height="19.33"/>
	
		<rect x="482.546" y="156.27" display="inline" fill="none" stroke="#009640" stroke-width="0.25" stroke-miterlimit="10" width="19.33" height="19.33"/>
	
		<rect x="501.876" y="156.27" display="inline" fill="none" stroke="#009640" stroke-width="0.25" stroke-miterlimit="10" width="19.33" height="19.33"/>
	
		<rect x="521.206" y="156.27" display="inline" fill="none" stroke="#009640" stroke-width="0.25" stroke-miterlimit="10" width="19.33" height="19.33"/>
	
		<rect x="540.536" y="156.27" display="inline" fill="none" stroke="#009640" stroke-width="0.25" stroke-miterlimit="10" width="19.33" height="19.33"/>
	
		<rect x="559.866" y="156.27" display="inline" fill="none" stroke="#009640" stroke-width="0.25" stroke-miterlimit="10" width="19.33" height="19.33"/>
	
		<rect x="579.196" y="156.27" display="inline" fill="none" stroke="#009640" stroke-width="0.25" stroke-miterlimit="10" width="19.33" height="19.33"/>
	
		<rect x="598.526" y="156.27" display="inline" fill="none" stroke="#009640" stroke-width="0.25" stroke-miterlimit="10" width="19.33" height="19.33"/>
	
		<rect x="617.856" y="156.27" display="inline" fill="none" stroke="#009640" stroke-width="0.25" stroke-miterlimit="10" width="19.33" height="19.33"/>
	
		<rect x="637.186" y="156.27" display="inline" fill="none" stroke="#009640" stroke-width="0.25" stroke-miterlimit="10" width="19.33" height="19.33"/>
	
		<rect x="656.516" y="156.27" display="inline" fill="none" stroke="#009640" stroke-width="0.25" stroke-miterlimit="10" width="19.33" height="19.33"/>
	
		<rect x="675.846" y="156.27" display="inline" fill="none" stroke="#009640" stroke-width="0.25" stroke-miterlimit="10" width="19.33" height="19.33"/>
	
		<rect x="115.274" y="136.94" display="inline" fill="none" stroke="#009640" stroke-width="0.25" stroke-miterlimit="10" width="19.33" height="19.33"/>
	
		<rect x="134.605" y="136.94" display="inline" fill="none" stroke="#009640" stroke-width="0.25" stroke-miterlimit="10" width="19.33" height="19.33"/>
	
		<rect x="153.935" y="136.94" display="inline" fill="none" stroke="#009640" stroke-width="0.25" stroke-miterlimit="10" width="19.33" height="19.33"/>
	
		<rect x="173.265" y="136.94" display="inline" fill="none" stroke="#009640" stroke-width="0.25" stroke-miterlimit="10" width="19.33" height="19.33"/>
	
		<rect x="192.595" y="136.94" display="inline" fill="none" stroke="#009640" stroke-width="0.25" stroke-miterlimit="10" width="19.33" height="19.33"/>
	
		<rect x="211.925" y="136.94" display="inline" fill="none" stroke="#009640" stroke-width="0.25" stroke-miterlimit="10" width="19.33" height="19.33"/>
	
		<rect x="231.255" y="136.94" display="inline" fill="none" stroke="#009640" stroke-width="0.25" stroke-miterlimit="10" width="19.33" height="19.33"/>
	
		<rect x="250.585" y="136.94" display="inline" fill="none" stroke="#009640" stroke-width="0.25" stroke-miterlimit="10" width="19.33" height="19.33"/>
	
		<rect x="269.915" y="136.94" display="inline" fill="none" stroke="#009640" stroke-width="0.25" stroke-miterlimit="10" width="19.33" height="19.33"/>
	
		<rect x="289.245" y="136.94" display="inline" fill="none" stroke="#009640" stroke-width="0.25" stroke-miterlimit="10" width="19.33" height="19.33"/>
	
		<rect x="308.575" y="136.94" display="inline" fill="none" stroke="#009640" stroke-width="0.25" stroke-miterlimit="10" width="19.33" height="19.33"/>
	
		<rect x="327.905" y="136.94" display="inline" fill="none" stroke="#009640" stroke-width="0.25" stroke-miterlimit="10" width="19.33" height="19.33"/>
	
		<rect x="347.235" y="136.94" display="inline" fill="none" stroke="#009640" stroke-width="0.25" stroke-miterlimit="10" width="19.33" height="19.33"/>
	
		<rect x="366.565" y="136.94" display="inline" fill="none" stroke="#009640" stroke-width="0.25" stroke-miterlimit="10" width="19.33" height="19.33"/>
	
		<rect x="385.895" y="136.94" display="inline" fill="none" stroke="#009640" stroke-width="0.25" stroke-miterlimit="10" width="19.33" height="19.33"/>
	
		<rect x="405.225" y="136.94" display="inline" fill="none" stroke="#009640" stroke-width="0.25" stroke-miterlimit="10" width="19.33" height="19.33"/>
	
		<rect x="424.556" y="136.94" display="inline" fill="none" stroke="#009640" stroke-width="0.25" stroke-miterlimit="10" width="19.33" height="19.33"/>
	
		<rect x="443.886" y="136.94" display="inline" fill="none" stroke="#009640" stroke-width="0.25" stroke-miterlimit="10" width="19.33" height="19.33"/>
	
		<rect x="463.216" y="136.94" display="inline" fill="none" stroke="#009640" stroke-width="0.25" stroke-miterlimit="10" width="19.33" height="19.33"/>
	
		<rect x="482.546" y="136.94" display="inline" fill="none" stroke="#009640" stroke-width="0.25" stroke-miterlimit="10" width="19.33" height="19.33"/>
	
		<rect x="501.876" y="136.94" display="inline" fill="none" stroke="#009640" stroke-width="0.25" stroke-miterlimit="10" width="19.33" height="19.33"/>
	
		<rect x="521.206" y="136.94" display="inline" fill="none" stroke="#009640" stroke-width="0.25" stroke-miterlimit="10" width="19.33" height="19.33"/>
	
		<rect x="540.536" y="136.94" display="inline" fill="none" stroke="#009640" stroke-width="0.25" stroke-miterlimit="10" width="19.33" height="19.33"/>
	
		<rect x="559.866" y="136.94" display="inline" fill="none" stroke="#009640" stroke-width="0.25" stroke-miterlimit="10" width="19.33" height="19.33"/>
	
		<rect x="579.196" y="136.94" display="inline" fill="none" stroke="#009640" stroke-width="0.25" stroke-miterlimit="10" width="19.33" height="19.33"/>
	
		<rect x="598.526" y="136.94" display="inline" fill="none" stroke="#009640" stroke-width="0.25" stroke-miterlimit="10" width="19.33" height="19.33"/>
	
		<rect x="617.856" y="136.94" display="inline" fill="none" stroke="#009640" stroke-width="0.25" stroke-miterlimit="10" width="19.33" height="19.33"/>
	
		<rect x="637.186" y="136.94" display="inline" fill="none" stroke="#009640" stroke-width="0.25" stroke-miterlimit="10" width="19.33" height="19.33"/>
	
		<rect x="656.516" y="136.94" display="inline" fill="none" stroke="#009640" stroke-width="0.25" stroke-miterlimit="10" width="19.33" height="19.33"/>
	
		<rect x="675.846" y="136.94" display="inline" fill="none" stroke="#009640" stroke-width="0.25" stroke-miterlimit="10" width="19.33" height="19.33"/>
	
		<rect x="115.274" y="117.61" display="inline" fill="none" stroke="#009640" stroke-width="0.25" stroke-miterlimit="10" width="19.33" height="19.33"/>
	
		<rect x="134.605" y="117.61" display="inline" fill="none" stroke="#009640" stroke-width="0.25" stroke-miterlimit="10" width="19.33" height="19.33"/>
	
		<rect x="153.935" y="117.61" display="inline" fill="none" stroke="#009640" stroke-width="0.25" stroke-miterlimit="10" width="19.33" height="19.33"/>
	
		<rect x="173.265" y="117.61" display="inline" fill="none" stroke="#009640" stroke-width="0.25" stroke-miterlimit="10" width="19.33" height="19.33"/>
	
		<rect x="192.595" y="117.61" display="inline" fill="none" stroke="#009640" stroke-width="0.25" stroke-miterlimit="10" width="19.33" height="19.33"/>
	
		<rect x="211.925" y="117.61" display="inline" fill="none" stroke="#009640" stroke-width="0.25" stroke-miterlimit="10" width="19.33" height="19.33"/>
	
		<rect x="231.255" y="117.61" display="inline" fill="none" stroke="#009640" stroke-width="0.25" stroke-miterlimit="10" width="19.33" height="19.33"/>
	
		<rect x="250.585" y="117.61" display="inline" fill="none" stroke="#009640" stroke-width="0.25" stroke-miterlimit="10" width="19.33" height="19.33"/>
	
		<rect x="269.915" y="117.61" display="inline" fill="none" stroke="#009640" stroke-width="0.25" stroke-miterlimit="10" width="19.33" height="19.33"/>
	
		<rect x="289.245" y="117.61" display="inline" fill="none" stroke="#009640" stroke-width="0.25" stroke-miterlimit="10" width="19.33" height="19.33"/>
	
		<rect x="308.575" y="117.61" display="inline" fill="none" stroke="#009640" stroke-width="0.25" stroke-miterlimit="10" width="19.33" height="19.33"/>
	
		<rect x="327.905" y="117.61" display="inline" fill="none" stroke="#009640" stroke-width="0.25" stroke-miterlimit="10" width="19.33" height="19.33"/>
	
		<rect x="347.235" y="117.61" display="inline" fill="none" stroke="#009640" stroke-width="0.25" stroke-miterlimit="10" width="19.33" height="19.33"/>
	
		<rect x="366.565" y="117.61" display="inline" fill="none" stroke="#009640" stroke-width="0.25" stroke-miterlimit="10" width="19.33" height="19.33"/>
	
		<rect x="385.895" y="117.61" display="inline" fill="none" stroke="#009640" stroke-width="0.25" stroke-miterlimit="10" width="19.33" height="19.33"/>
	
		<rect x="405.225" y="117.61" display="inline" fill="none" stroke="#009640" stroke-width="0.25" stroke-miterlimit="10" width="19.33" height="19.33"/>
	
		<rect x="424.556" y="117.61" display="inline" fill="none" stroke="#009640" stroke-width="0.25" stroke-miterlimit="10" width="19.33" height="19.33"/>
	
		<rect x="443.886" y="117.61" display="inline" fill="none" stroke="#009640" stroke-width="0.25" stroke-miterlimit="10" width="19.33" height="19.33"/>
	
		<rect x="463.216" y="117.61" display="inline" fill="none" stroke="#009640" stroke-width="0.25" stroke-miterlimit="10" width="19.33" height="19.33"/>
	
		<rect x="482.546" y="117.61" display="inline" fill="none" stroke="#009640" stroke-width="0.25" stroke-miterlimit="10" width="19.33" height="19.33"/>
	
		<rect x="501.876" y="117.61" display="inline" fill="none" stroke="#009640" stroke-width="0.25" stroke-miterlimit="10" width="19.33" height="19.33"/>
	
		<rect x="521.206" y="117.61" display="inline" fill="none" stroke="#009640" stroke-width="0.25" stroke-miterlimit="10" width="19.33" height="19.33"/>
	
		<rect x="540.536" y="117.61" display="inline" fill="none" stroke="#009640" stroke-width="0.25" stroke-miterlimit="10" width="19.33" height="19.33"/>
	
		<rect x="559.866" y="117.61" display="inline" fill="none" stroke="#009640" stroke-width="0.25" stroke-miterlimit="10" width="19.33" height="19.33"/>
	
		<rect x="579.196" y="117.61" display="inline" fill="none" stroke="#009640" stroke-width="0.25" stroke-miterlimit="10" width="19.33" height="19.33"/>
	
		<rect x="598.526" y="117.61" display="inline" fill="none" stroke="#009640" stroke-width="0.25" stroke-miterlimit="10" width="19.33" height="19.33"/>
	
		<rect x="617.856" y="117.61" display="inline" fill="none" stroke="#009640" stroke-width="0.25" stroke-miterlimit="10" width="19.33" height="19.33"/>
	
		<rect x="637.186" y="117.61" display="inline" fill="none" stroke="#009640" stroke-width="0.25" stroke-miterlimit="10" width="19.33" height="19.33"/>
	
		<rect x="656.516" y="117.61" display="inline" fill="none" stroke="#009640" stroke-width="0.25" stroke-miterlimit="10" width="19.33" height="19.33"/>
	
		<rect x="675.846" y="117.61" display="inline" fill="none" stroke="#009640" stroke-width="0.25" stroke-miterlimit="10" width="19.33" height="19.33"/>
	
		<rect x="115.274" y="98.28" display="inline" fill="none" stroke="#009640" stroke-width="0.25" stroke-miterlimit="10" width="19.33" height="19.33"/>
	
		<rect x="134.605" y="98.28" display="inline" fill="none" stroke="#009640" stroke-width="0.25" stroke-miterlimit="10" width="19.33" height="19.33"/>
	
		<rect x="153.935" y="98.28" display="inline" fill="none" stroke="#009640" stroke-width="0.25" stroke-miterlimit="10" width="19.33" height="19.33"/>
	
		<rect x="173.265" y="98.28" display="inline" fill="none" stroke="#009640" stroke-width="0.25" stroke-miterlimit="10" width="19.33" height="19.33"/>
	
		<rect x="192.595" y="98.28" display="inline" fill="none" stroke="#009640" stroke-width="0.25" stroke-miterlimit="10" width="19.33" height="19.33"/>
	
		<rect x="211.925" y="98.28" display="inline" fill="none" stroke="#009640" stroke-width="0.25" stroke-miterlimit="10" width="19.33" height="19.33"/>
	
		<rect x="231.255" y="98.28" display="inline" fill="none" stroke="#009640" stroke-width="0.25" stroke-miterlimit="10" width="19.33" height="19.33"/>
	
		<rect x="250.585" y="98.28" display="inline" fill="none" stroke="#009640" stroke-width="0.25" stroke-miterlimit="10" width="19.33" height="19.33"/>
	
		<rect x="269.915" y="98.28" display="inline" fill="none" stroke="#009640" stroke-width="0.25" stroke-miterlimit="10" width="19.33" height="19.33"/>
	
		<rect x="289.245" y="98.28" display="inline" fill="none" stroke="#009640" stroke-width="0.25" stroke-miterlimit="10" width="19.33" height="19.33"/>
	
		<rect x="308.575" y="98.28" display="inline" fill="none" stroke="#009640" stroke-width="0.25" stroke-miterlimit="10" width="19.33" height="19.33"/>
	
		<rect x="327.905" y="98.28" display="inline" fill="none" stroke="#009640" stroke-width="0.25" stroke-miterlimit="10" width="19.33" height="19.33"/>
	
		<rect x="347.235" y="98.28" display="inline" fill="none" stroke="#009640" stroke-width="0.25" stroke-miterlimit="10" width="19.33" height="19.33"/>
	
		<rect x="366.565" y="98.28" display="inline" fill="none" stroke="#009640" stroke-width="0.25" stroke-miterlimit="10" width="19.33" height="19.33"/>
	
		<rect x="385.895" y="98.28" display="inline" fill="none" stroke="#009640" stroke-width="0.25" stroke-miterlimit="10" width="19.33" height="19.33"/>
	
		<rect x="405.225" y="98.28" display="inline" fill="none" stroke="#009640" stroke-width="0.25" stroke-miterlimit="10" width="19.33" height="19.33"/>
	
		<rect x="424.556" y="98.28" display="inline" fill="none" stroke="#009640" stroke-width="0.25" stroke-miterlimit="10" width="19.33" height="19.33"/>
	
		<rect x="443.886" y="98.28" display="inline" fill="none" stroke="#009640" stroke-width="0.25" stroke-miterlimit="10" width="19.33" height="19.33"/>
	
		<rect x="463.216" y="98.28" display="inline" fill="none" stroke="#009640" stroke-width="0.25" stroke-miterlimit="10" width="19.33" height="19.33"/>
	
		<rect x="482.546" y="98.28" display="inline" fill="none" stroke="#009640" stroke-width="0.25" stroke-miterlimit="10" width="19.33" height="19.33"/>
	
		<rect x="501.876" y="98.28" display="inline" fill="none" stroke="#009640" stroke-width="0.25" stroke-miterlimit="10" width="19.33" height="19.33"/>
	
		<rect x="521.206" y="98.28" display="inline" fill="none" stroke="#009640" stroke-width="0.25" stroke-miterlimit="10" width="19.33" height="19.33"/>
	
		<rect x="540.536" y="98.28" display="inline" fill="none" stroke="#009640" stroke-width="0.25" stroke-miterlimit="10" width="19.33" height="19.33"/>
	
		<rect x="559.866" y="98.28" display="inline" fill="none" stroke="#009640" stroke-width="0.25" stroke-miterlimit="10" width="19.33" height="19.33"/>
	
		<rect x="579.196" y="98.28" display="inline" fill="none" stroke="#009640" stroke-width="0.25" stroke-miterlimit="10" width="19.33" height="19.33"/>
	
		<rect x="598.526" y="98.28" display="inline" fill="none" stroke="#009640" stroke-width="0.25" stroke-miterlimit="10" width="19.33" height="19.33"/>
	
		<rect x="617.856" y="98.28" display="inline" fill="none" stroke="#009640" stroke-width="0.25" stroke-miterlimit="10" width="19.33" height="19.33"/>
	
		<rect x="637.186" y="98.28" display="inline" fill="none" stroke="#009640" stroke-width="0.25" stroke-miterlimit="10" width="19.33" height="19.33"/>
	
		<rect x="656.516" y="98.28" display="inline" fill="none" stroke="#009640" stroke-width="0.25" stroke-miterlimit="10" width="19.33" height="19.33"/>
	
		<rect x="675.846" y="98.28" display="inline" fill="none" stroke="#009640" stroke-width="0.25" stroke-miterlimit="10" width="19.33" height="19.33"/>
	
		<rect x="115.274" y="78.95" display="inline" fill="none" stroke="#009640" stroke-width="0.25" stroke-miterlimit="10" width="19.33" height="19.33"/>
	
		<rect x="134.605" y="78.95" display="inline" fill="none" stroke="#009640" stroke-width="0.25" stroke-miterlimit="10" width="19.33" height="19.33"/>
	
		<rect x="153.935" y="78.95" display="inline" fill="none" stroke="#009640" stroke-width="0.25" stroke-miterlimit="10" width="19.33" height="19.33"/>
	
		<rect x="173.265" y="78.95" display="inline" fill="none" stroke="#009640" stroke-width="0.25" stroke-miterlimit="10" width="19.33" height="19.33"/>
	
		<rect x="192.595" y="78.95" display="inline" fill="none" stroke="#009640" stroke-width="0.25" stroke-miterlimit="10" width="19.33" height="19.33"/>
	
		<rect x="211.925" y="78.95" display="inline" fill="none" stroke="#009640" stroke-width="0.25" stroke-miterlimit="10" width="19.33" height="19.33"/>
	
		<rect x="231.255" y="78.95" display="inline" fill="none" stroke="#009640" stroke-width="0.25" stroke-miterlimit="10" width="19.33" height="19.33"/>
	
		<rect x="250.585" y="78.95" display="inline" fill="none" stroke="#009640" stroke-width="0.25" stroke-miterlimit="10" width="19.33" height="19.33"/>
	
		<rect x="269.915" y="78.95" display="inline" fill="none" stroke="#009640" stroke-width="0.25" stroke-miterlimit="10" width="19.33" height="19.33"/>
	
		<rect x="289.245" y="78.95" display="inline" fill="none" stroke="#009640" stroke-width="0.25" stroke-miterlimit="10" width="19.33" height="19.33"/>
	
		<rect x="308.575" y="78.95" display="inline" fill="none" stroke="#009640" stroke-width="0.25" stroke-miterlimit="10" width="19.33" height="19.33"/>
	
		<rect x="327.905" y="78.95" display="inline" fill="none" stroke="#009640" stroke-width="0.25" stroke-miterlimit="10" width="19.33" height="19.33"/>
	
		<rect x="347.235" y="78.95" display="inline" fill="none" stroke="#009640" stroke-width="0.25" stroke-miterlimit="10" width="19.33" height="19.33"/>
	
		<rect x="366.565" y="78.95" display="inline" fill="none" stroke="#009640" stroke-width="0.25" stroke-miterlimit="10" width="19.33" height="19.33"/>
	
		<rect x="385.895" y="78.95" display="inline" fill="none" stroke="#009640" stroke-width="0.25" stroke-miterlimit="10" width="19.33" height="19.33"/>
	
		<rect x="405.225" y="78.95" display="inline" fill="none" stroke="#009640" stroke-width="0.25" stroke-miterlimit="10" width="19.33" height="19.33"/>
	
		<rect x="424.556" y="78.95" display="inline" fill="none" stroke="#009640" stroke-width="0.25" stroke-miterlimit="10" width="19.33" height="19.33"/>
	
		<rect x="443.886" y="78.95" display="inline" fill="none" stroke="#009640" stroke-width="0.25" stroke-miterlimit="10" width="19.33" height="19.33"/>
	
		<rect x="463.216" y="78.95" display="inline" fill="none" stroke="#009640" stroke-width="0.25" stroke-miterlimit="10" width="19.33" height="19.33"/>
	
		<rect x="482.546" y="78.95" display="inline" fill="none" stroke="#009640" stroke-width="0.25" stroke-miterlimit="10" width="19.33" height="19.33"/>
	
		<rect x="501.876" y="78.95" display="inline" fill="none" stroke="#009640" stroke-width="0.25" stroke-miterlimit="10" width="19.33" height="19.33"/>
	
		<rect x="521.206" y="78.95" display="inline" fill="none" stroke="#009640" stroke-width="0.25" stroke-miterlimit="10" width="19.33" height="19.33"/>
	
		<rect x="540.536" y="78.95" display="inline" fill="none" stroke="#009640" stroke-width="0.25" stroke-miterlimit="10" width="19.33" height="19.33"/>
	
		<rect x="559.866" y="78.95" display="inline" fill="none" stroke="#009640" stroke-width="0.25" stroke-miterlimit="10" width="19.33" height="19.33"/>
	
		<rect x="579.196" y="78.95" display="inline" fill="none" stroke="#009640" stroke-width="0.25" stroke-miterlimit="10" width="19.33" height="19.33"/>
	
		<rect x="598.526" y="78.95" display="inline" fill="none" stroke="#009640" stroke-width="0.25" stroke-miterlimit="10" width="19.33" height="19.33"/>
	
		<rect x="617.856" y="78.95" display="inline" fill="none" stroke="#009640" stroke-width="0.25" stroke-miterlimit="10" width="19.33" height="19.33"/>
	
		<rect x="637.186" y="78.95" display="inline" fill="none" stroke="#009640" stroke-width="0.25" stroke-miterlimit="10" width="19.33" height="19.33"/>
	
		<rect x="656.516" y="78.95" display="inline" fill="none" stroke="#009640" stroke-width="0.25" stroke-miterlimit="10" width="19.33" height="19.33"/>
	
		<rect x="675.846" y="78.95" display="inline" fill="none" stroke="#009640" stroke-width="0.25" stroke-miterlimit="10" width="19.33" height="19.33"/>
</g>
<g id="Capa_4">
	<polygon points="115.236,97.859 115.274,185.331 284.291,185.349 284.31,97.859 	"/>
	<rect x="201.67" y="103.746" fill="#FFCC00" width="77.068" height="75.697"/>
	<circle cx="201.575" cy="142.26" r="15.782"/>
	<polygon fill="#E30613" points="120.921,134.346 201.575,103.74 201.575,113.832 128.648,141.593 201.575,169.305 201.575,179.446 
		120.921,148.664 	"/>
	<polygon fill="#E30613" points="172.223,121.589 172.223,163.189 181.666,166.416 181.602,118.105 	"/>
	<polygon points="201.575,103.721 278.832,133.2 278.832,150.149 201.575,179.446 201.575,169.305 274.536,141.679 201.575,113.832 
			"/>
	<g>
		<path d="M308.336,112.839h11.132v2.587h-8.118v7.558h7.741v2.587h-7.741v8.444h8.563v2.587h-11.577L308.336,112.839
			L308.336,112.839z"/>
		<path d="M333.057,116.038c-1.13-0.68-2.603-1.09-4.076-1.09c-2.261,0-3.733,1.533-3.733,3.541c0,1.532,0.617,2.485,4.041,4.46
			c3.699,2.111,4.932,4.187,4.932,6.911c0,3.779-2.363,6.742-6.953,6.742c-1.918,0-3.733-0.409-5-1.022v-3.098
			c1.37,0.818,3.151,1.532,4.555,1.532c2.706,0,4.247-1.804,4.247-3.745c0-1.838-0.48-2.893-3.699-4.835
			c-4.315-2.587-5.275-4.052-5.275-7.116c0-3.916,3.014-5.958,6.645-5.958c1.575,0,3.254,0.34,4.315,0.784v2.894H333.057z"/>
		<path d="M351.495,135.888c-1.439,0.442-2.945,0.715-4.35,0.715c-7.57,0-10.755-5.72-10.755-12.155
			c0-7.423,4.35-12.087,10.583-12.087c1.713,0,3.425,0.306,4.521,0.852v2.927c-1.301-0.817-2.809-1.192-4.487-1.192
			c-3.905,0-7.466,3.099-7.466,8.887c0,6.129,2.466,10.18,7.672,10.18c1.541,0,3.048-0.408,4.281-1.124v2.997H351.495z"/>
		<path d="M369.405,127.614c0,2.35-0.137,3.643-0.959,5.311c-0.993,1.975-3.083,3.678-6.542,3.678c-3.459,0-5.549-1.702-6.542-3.678
			c-0.822-1.668-0.959-2.962-0.959-5.311V112.6h3.014v15.457c0,3.711,1.644,6.095,4.487,6.095s4.487-2.384,4.487-6.095V112.6h3.014
			V127.614z"/>
		<path d="M373.433,112.839h11.132v2.587h-8.118v7.558h7.741v2.587h-7.741v8.444h8.563v2.587h-11.577L373.433,112.839
			L373.433,112.839z"/>
		<path d="M388.976,112.839h3.014v21.177h7.844v2.587h-10.858V112.839z"/>
		<path d="M412.796,112.839l7.809,23.764h-3.151l-1.918-6.197h-9.111l-1.918,6.197h-3.014l8.015-23.764H412.796z M414.748,127.819
			l-3.665-11.848h-0.069l-3.767,11.848H414.748z"/>
		<path d="M430.672,112.839h5.206c3.185,0,5,0.748,6.37,1.702c2.124,1.464,4.418,4.459,4.418,9.806
			c0,6.877-3.288,12.256-12.261,12.256h-3.733V112.839z M433.686,134.016h1.815c5.275,0,8.015-3.575,8.015-9.669
			c0-4.971-2.123-8.921-8.015-8.921h-1.815V134.016z"/>
		<path d="M449.121,112.839h11.132v2.587h-8.118v7.558h7.741v2.587h-7.741v8.444h8.563v2.587h-11.577L449.121,112.839
			L449.121,112.839z"/>
		<path d="M479.105,112.839l7.809,23.764h-3.151l-1.918-6.197h-9.111l-1.918,6.197h-3.014l8.015-23.764H479.105z M481.057,127.819
			l-3.665-11.848h-0.069l-3.767,11.848H481.057z"/>
		<path d="M489.259,112.839h6.131c2.535,0,3.938,0.613,5.034,1.634c1.233,1.158,1.781,2.791,1.781,4.528
			c0,2.52-1.199,4.937-4.726,5.686v0.068c1.438,0.272,2.123,0.953,2.603,2.314l3.357,9.534h-3.254l-2.74-8.035
			c-0.685-1.975-1.542-2.724-3.802-2.724h-1.37v10.759h-3.014V112.839z M492.273,123.393h2.329c3.219,0,4.453-2.111,4.453-4.187
			c0-2.656-1.747-3.916-4.384-3.916h-2.398V123.393z"/>
		<path d="M509.445,115.426h-5.48v-2.587h13.974v2.587h-5.48v21.177h-3.014L509.445,115.426L509.445,115.426z"/>
		<path d="M520.291,112.839h11.132v2.587h-8.117v7.558h7.741v2.587h-7.741v8.444h8.562v2.587h-11.577V112.839z"/>
		<path d="M546.05,116.038c-1.13-0.68-2.603-1.09-4.075-1.09c-2.261,0-3.734,1.533-3.734,3.541c0,1.532,0.617,2.485,4.042,4.46
			c3.699,2.111,4.932,4.187,4.932,6.911c0,3.779-2.364,6.742-6.952,6.742c-1.919,0-3.733-0.409-5.001-1.022v-3.098
			c1.37,0.818,3.151,1.532,4.556,1.532c2.706,0,4.247-1.804,4.247-3.745c0-1.838-0.479-2.893-3.699-4.835
			c-4.316-2.587-5.275-4.052-5.275-7.116c0-3.916,3.014-5.958,6.645-5.958c1.575,0,3.254,0.34,4.315,0.784v2.894H546.05z"/>
		<path d="M554.285,112.839h3.288l5.549,19.372h0.069l5.857-19.372h3.013l-7.5,23.764h-3.015L554.285,112.839z"/>
		<path d="M574.537,112.839h3.015v23.764h-3.015V112.839z"/>
		<path d="M592.1,116.038c-1.13-0.68-2.603-1.09-4.075-1.09c-2.261,0-3.734,1.533-3.734,3.541c0,1.532,0.617,2.485,4.042,4.46
			c3.699,2.111,4.932,4.187,4.932,6.911c0,3.779-2.364,6.742-6.952,6.742c-1.919,0-3.733-0.409-5.001-1.022v-3.098
			c1.37,0.818,3.151,1.532,4.556,1.532c2.706,0,4.247-1.804,4.247-3.745c0-1.838-0.479-2.893-3.699-4.835
			c-4.316-2.587-5.275-4.052-5.275-7.116c0-3.916,3.014-5.958,6.645-5.958c1.575,0,3.254,0.34,4.315,0.784v2.894H592.1z"/>
		<path d="M611.41,127.614c0,2.35-0.137,3.643-0.959,5.311c-0.994,1.975-3.083,3.678-6.543,3.678c-3.459,0-5.548-1.702-6.542-3.678
			c-0.821-1.668-0.959-2.962-0.959-5.311V112.6h3.015v15.457c0,3.711,1.644,6.095,4.486,6.095c2.843,0,4.487-2.384,4.487-6.095
			V112.6h3.015L611.41,127.614L611.41,127.614z"/>
		<path d="M624.354,112.839l7.809,23.764h-3.152l-1.917-6.197h-9.111l-1.918,6.197h-3.013l8.014-23.764H624.354z M626.306,127.819
			l-3.664-11.848h-0.069l-3.767,11.848H626.306z"/>
		<path d="M635.072,112.839h3.015v21.177h7.843v2.587h-10.857v-23.764H635.072z"/>
		<path d="M649.01,112.839h11.132v2.587h-8.117v7.558h7.741v2.587h-7.741v8.444h8.562v2.587H649.01V112.839z"/>
		<path d="M674.72,116.038c-1.13-0.68-2.603-1.09-4.075-1.09c-2.261,0-3.734,1.533-3.734,3.541c0,1.532,0.617,2.485,4.042,4.46
			c3.699,2.111,4.932,4.187,4.932,6.911c0,3.779-2.364,6.742-6.952,6.742c-1.919,0-3.733-0.409-5.001-1.022v-3.098
			c1.37,0.818,3.151,1.532,4.556,1.532c2.706,0,4.247-1.804,4.247-3.745c0-1.838-0.479-2.893-3.699-4.835
			c-4.316-2.587-5.275-4.052-5.275-7.116c0-3.916,3.014-5.958,6.645-5.958c1.575,0,3.254,0.34,4.315,0.784v2.894H674.72z"/>
	</g>
	<g>
		<path d="M330.049,151.849h-0.076l-5.98,21.027h-4.114l-5.752-21.027h-0.076v21.027h-5.714v-26.588h9.409l4.304,17.104h0.076
			l4.648-17.104h8.989v26.588h-5.714V151.849z"/>
		<path d="M354.679,166.934h-8.342l-1.829,5.942h-6.018l8.837-26.588h6.857l8.533,26.588h-6.4L354.679,166.934z M350.717,151.393
			h-0.076l-3.162,11.046h5.981L350.717,151.393z"/>
		<path d="M364.87,146.288h9.751c4.38,0,8.113,1.943,8.113,6.857c0,1.104-0.152,5.485-5.295,6.513v0.076
			c1.943,0.229,2.705,1.296,3.695,4.457l2.742,8.685h-6.552l-2.057-7.123c-1.028-3.619-1.866-3.619-4.152-3.619v10.742h-6.247
			v-26.588H364.87z M371.461,157.64h1.943c2.4,0,3.657-1.6,3.657-3.505c0-1.105-0.343-3.353-3.695-3.353h-1.905V157.64z"/>
		<path d="M390.857,151.088h-5.79v-4.8h17.827v4.8h-5.79v21.788h-6.247L390.857,151.088L390.857,151.088z"/>
		<path d="M407.064,146.288h6.247v26.588h-6.247V146.288z M409.273,139.05h5.257l-3.809,5.561h-3.504L409.273,139.05z"/>
		<path d="M418.226,146.288h7.314l7.733,18.436h0.076v-18.436h5.485v26.588h-7.39l-7.656-19.236h-0.076v19.236h-5.485
			L418.226,146.288L418.226,146.288z"/>
		<path d="M464.006,166.934h-8.342l-1.829,5.942h-6.018l8.837-26.588h6.857l8.533,26.588h-6.4L464.006,166.934z M460.044,151.393
			h-0.076l-3.162,11.046h5.981L460.044,151.393z"/>
		<path d="M474.096,167.162h5.485v5.714h-5.485V167.162z"/>
		<path d="M508.868,151.849h-0.076l-5.98,21.027h-4.114l-5.752-21.027h-0.076v21.027h-5.714v-26.588h9.409l4.304,17.104h0.076
			l4.648-17.104h8.99v26.588h-5.714v-21.027H508.868z"/>
		<path d="M532.318,166.934h-8.342l-1.829,5.942h-6.019l8.838-26.588h6.856l8.533,26.588h-6.4L532.318,166.934z M527.492,151.393
			h-0.075l-3.162,11.046h5.981L527.492,151.393z"/>
		<path d="M542.3,146.288h6.247v21.789h8.799v4.799H542.3V146.288z"/>
		<path d="M573.297,161.83h-6.475v11.046h-6.247v-26.588h6.247v10.59h6.475v-10.59h6.248v26.588h-6.248V161.83z"/>
		<path d="M598.231,166.934h-8.343l-1.829,5.942h-6.018l8.837-26.588h6.857l8.532,26.588h-6.4L598.231,166.934z M594.269,151.393
			h-0.076l-3.161,11.046h5.98L594.269,151.393z"/>
		<path d="M608.84,146.288h9.752c4.38,0,8.113,1.943,8.113,6.857c0,1.104-0.153,5.485-5.295,6.513v0.076
			c1.943,0.229,2.705,1.296,3.695,4.457l2.742,8.685h-6.552l-2.057-7.123c-1.028-3.619-1.866-3.619-4.151-3.619v10.742h-6.247
			V146.288z M614.858,157.64h1.943c2.4,0,3.657-1.6,3.657-3.505c0-1.105-0.343-3.353-3.695-3.353h-1.905L614.858,157.64
			L614.858,157.64z"/>
		<path d="M632.029,146.288h9.752c4.381,0,8.113,1.943,8.113,6.857c0,1.104-0.152,5.485-5.294,6.513v0.076
			c1.943,0.229,2.705,1.296,3.695,4.457l2.742,8.685h-6.552l-2.057-7.123c-1.029-3.619-1.866-3.619-4.152-3.619v10.742h-6.247
			V146.288z M638.047,157.64h1.943c2.399,0,3.656-1.6,3.656-3.505c0-1.105-0.342-3.353-3.695-3.353h-1.904V157.64z"/>
		<path d="M664.07,145.374c7.657,0,11.313,5.942,11.313,13.751s-3.656,13.751-11.313,13.751c-7.656,0-11.275-5.942-11.275-13.751
			S656.414,145.374,664.07,145.374z M664.07,168.381c3.619,0,4.914-4.152,4.914-9.256c0-5.105-1.296-9.256-4.914-9.256
			c-3.619,0-4.876,4.151-4.876,9.256C659.195,164.229,660.452,168.381,664.07,168.381z"/>
		<polygon points="296.614,170.58 296.614,170.58 296.614,170.58 		"/>
	</g>
</g>
<g id="Capa_1_1_" display="none">
	<rect x="610.736" y="-17.625" display="inline" fill="#141515" width="367.231" height="194.52"/>
	<path display="inline" fill="#DE2C1C" d="M641.539,79.567l35.308-12.699l58.058-22.082v71.05l-58.058-22.059l-35.331-12.721
		L641.539,79.567z M621.861,95.153l176.427,68.727v-23.638l-43.248-16.759V37.14l43.248-16.736V-3.257L621.861,65.47V95.153z"/>
	
		<text transform="matrix(1.0107 0 0 1 608.046 207.4387)" display="inline" fill="#141515" font-family="'FranklinGothic-Medium'" font-size="28.1768">E</text>
	
		<text transform="matrix(1.0107 0 0 1 623.4131 207.4387)" display="inline" fill="#141515" font-family="'FranklinGothic-Medium'" font-size="28.1768">S</text>
	
		<text transform="matrix(1.0107 0 0 1 639.9111 207.4387)" display="inline" fill="#141515" font-family="'FranklinGothic-Medium'" font-size="28.1768">C</text>
	
		<text transform="matrix(1.0107 0 0 1 656.4024 207.4387)" display="inline" fill="#141515" font-family="'FranklinGothic-Medium'" font-size="28.1768">U</text>
	
		<text transform="matrix(1.0107 0 0 1 673.4815 207.4387)" display="inline" fill="#141515" font-family="'FranklinGothic-Medium'" font-size="28.1768">E</text>
</g>
<g id="Capa_2" display="none">
	
		<circle display="inline" fill="none" stroke="#009FE3" stroke-width="0.25" stroke-miterlimit="10" cx="399.556" cy="78.826" r="34.282"/>
	
		<rect x="212.005" y="-17.678" display="inline" fill="none" stroke="#009FE3" stroke-width="0.25" stroke-miterlimit="10" width="187.551" height="190.104"/>
	
		<rect x="399.556" y="-17.678" display="inline" fill="none" stroke="#009FE3" stroke-width="0.25" stroke-miterlimit="10" width="179.72" height="190.095"/>
	
		<rect x="212.087" y="159.451" display="inline" fill="none" stroke="#009FE3" stroke-width="0.25" stroke-miterlimit="10" width="367.271" height="12.97"/>
	
		<rect x="566.968" y="-17.61" display="inline" fill="none" stroke="#009FE3" stroke-width="0.25" stroke-miterlimit="10" width="12.268" height="190.036"/>
	
		<rect x="212.087" y="-17.625" display="inline" fill="none" stroke="#009FE3" stroke-width="0.25" stroke-miterlimit="10" width="12.268" height="190.045"/>
	
		<rect x="335.796" y="-17.658" display="inline" fill="none" stroke="#009FE3" stroke-width="0.25" stroke-miterlimit="10" width="20.512" height="193.221"/>
	
		<rect x="316.154" y="-163.382" transform="matrix(-0.3545 -0.9351 0.9351 -0.3545 410.4921 351.0261)" display="inline" fill="none" stroke="#009FE3" stroke-width="0.25" stroke-miterlimit="10" width="20.513" height="394.408"/>
	
		<rect x="435.125" y="-173.567" transform="matrix(0.3562 -0.9344 0.9344 0.3562 264.6573 431.3795)" display="inline" fill="none" stroke="#009FE3" stroke-width="0.25" stroke-miterlimit="10" width="20.512" height="394.388"/>
	
		<rect x="333.67" y="-69.921" transform="matrix(0.3562 -0.9344 0.9344 0.3562 102.4928 403.3054)" display="inline" fill="none" stroke="#009FE3" stroke-width="0.25" stroke-miterlimit="10" width="20.512" height="394.388"/>
	
		<rect x="456.991" y="-74.344" transform="matrix(-0.3545 -0.9351 0.9351 -0.3545 517.9985 603.3174)" display="inline" fill="none" stroke="#009FE3" stroke-width="0.25" stroke-miterlimit="10" width="20.513" height="394.408"/>
</g>
</svg>
