<?xml version="1.0" encoding="utf-8"?>
<!-- Generator: Adobe Illustrator 17.0.0, SVG Export Plug-In . SVG Version: 6.00 Build 0) -->
<!DOCTYPE svg PUBLIC "-//W3C//DTD SVG 1.1//EN" "http://www.w3.org/Graphics/SVG/1.1/DTD/svg11.dtd">
<svg version="1.1" xmlns="http://www.w3.org/2000/svg" xmlns:xlink="http://www.w3.org/1999/xlink" x="0px" y="0px"
     width="199.027px" height="199.019px" viewBox="0 0 199.027 199.019" enable-background="new 0 0 199.027 199.019"
     xml:space="preserve">
  <g id="Capa_2">
    <!-- Fondo oscuro del icono -->
    <path fill="#1D1D1B" d="M27.955,0C27.955,0,0.5,2.167,0.5,27.167S0.5,170,0.5,170s1.788,29,28.288,29s137.167,0,137.167,0
    s33.545,1.75,33.545-28s0-138.5,0-138.5S201.455,0,171.955,0S27.955,0,27.955,0z"/>
    <!-- Icono de Instagram en blanco -->
    <path fill="#FFFFFF" d="M52.788,56c0,0,21.833,26.667,53.667,26.667c-6-20.833,22-45,44.333-23.667c0,0,10.667-2,16.667-6.167
    c-1.833,3.5-1.688,7.792-11.25,14.042c8.191-1.025,12.083-2.458,14.417-3.583c2.333-1.125-8.083,11.208-12.417,13.25
    c-0.083,3.292,0.417,36.958-22.75,57.292c-25.833,24-62.667,26.833-91.5,8.667c16.5,2.5,31.354-5.225,38.167-10.833
    c0,0-18.833-1-24-18c4.333,0.333,9.029,0.705,11.5-0.833c-20.167-3.5-20.5-25.5-20.5-25.5c5.5,2.5,11.5,3,11.5,3
    S41.955,78.833,52.788,56z"/>
  </g>
</svg>
